<?xml version="1.0" encoding="UTF-8" standalone="no"?>
<!-- Created with Inkscape (http://www.inkscape.org/) -->

<svg
   width="300"
   height="300"
   viewBox="0 0 79.374999 79.375"
   version="1.1"
   id="svg5"
   xml:space="preserve"
   inkscape:export-filename="card-balans.svg"
   inkscape:export-xdpi="96"
   inkscape:export-ydpi="96"
   inkscape:version="1.2.2 (732a01da63, 2022-12-09)"
   sodipodi:docname="opdrachten.svg"
   xmlns:inkscape="http://www.inkscape.org/namespaces/inkscape"
   xmlns:sodipodi="http://sodipodi.sourceforge.net/DTD/sodipodi-0.dtd"
   xmlns="http://www.w3.org/2000/svg"
   xmlns:svg="http://www.w3.org/2000/svg"><sodipodi:namedview
     id="namedview7"
     pagecolor="#ffffff"
     bordercolor="#000000"
     borderopacity="0.25"
     inkscape:showpageshadow="2"
     inkscape:pageopacity="0.0"
     inkscape:pagecheckerboard="0"
     inkscape:deskcolor="#d1d1d1"
     inkscape:document-units="mm"
     showgrid="false"
     showguides="true"
     inkscape:zoom="0.76078844"
     inkscape:cx="-147.87291"
     inkscape:cy="513.94051"
     inkscape:window-width="1920"
     inkscape:window-height="1009"
     inkscape:window-x="1072"
     inkscape:window-y="-8"
     inkscape:window-maximized="1"
     inkscape:current-layer="layer1" /><defs
     id="defs2" /><g
     inkscape:label="Layer 1"
     inkscape:groupmode="layer"
     id="layer1"><path
       id="path314"
       style="fill:#000000;stroke:none;stroke-width:0;stroke-dasharray:none"
       d="m -34.530582,199.34933 c 0.21835,-0.21836 0.22225,-0.37042 0.22225,-8.67409 0,-9.6745 -0.13569,-8.77428 1.11287,-7.38354 0.38409,0.42783 2.46872,2.56561 4.63251,4.75061 4.25837,4.30014 4.24943,4.29325 4.80358,3.70339 0.42814,-0.45573 0.18947,-0.8723 -1.58946,-2.77426 -1.55188,-1.65921 -5.00473,-5.15462 -6.40362,-6.48255 -0.39727,-0.37712 -1.10456,-1.10894 -1.57176,-1.62627 -0.75418,-0.83511 -0.85649,-1.00089 -0.91233,-1.47827 -0.12385,-1.05876 -0.19795,-4.54321 -0.10203,-4.79783 0.10809,-0.2869 0.10072,-0.29517 0.97376,1.09309 0.60363,0.95987 1.66759,2.13881 3.05171,3.38153 0.7669,0.68855 2.31947,2.13935 3.45018,3.22399 1.1307,1.08465 3.25597,3.02936 4.72283,4.3216 1.46686,1.29222 3.22541,2.88772 3.9079,3.54553 1.36085,1.31165 1.61796,1.42609 2.02924,0.90324 0.5245,-0.6668 0.27298,-1.13151 -1.40161,-2.58959 -0.72209,-0.62874 -2.23802,-2.02677 -3.36872,-3.10673 -1.1307,-1.07997 -2.45587,-2.2832 -2.94482,-2.67387 -1.37945,-1.10214 -4.83955,-4.57853 -6.06877,-6.09733 -0.6097,-0.75333 -1.37393,-1.77847 -1.69828,-2.27807 -0.85027,-1.30967 -2.40136,-4.35963 -2.39846,-4.71617 0.003,-0.34805 0.35719,-0.86946 0.52177,-0.76775 0.0606,0.0375 0.22451,0.38221 0.36417,0.76608 0.62952,1.7303 2.07639,3.68645 3.7991,4.98767 1.35687,1.02489 3.26112,2.00471 6.04708,2.6072 1.01209,0.21888 9.45723,0.37885 17.9884898,0.30959 5.40991997,-0.0439 6.13162997,-0.07 6.30636997,-0.22817 0.25841003,-0.23386 0.25312003,-0.82847 -0.0103,-1.15374 l -0.20759,-0.25636 -11.48836977,-0.0748 c -11.21257,-0.073 -11.51237,-0.0805 -12.4885,-0.31227 -3.0469,-0.72358 -4.825,-1.65419 -6.47049,-3.38646 -0.97026,-1.02143 -1.38347,-1.80526 -1.78199,-3.38035 -0.26054,-1.0297 -0.30139,-1.41256 -0.29918,-2.80385 0.003,-1.68351 0.10283,-2.36068 0.56584,-3.82526 0.73634,-2.32924 2.11516,-4.08467 4.16469,-5.30228 l 0.77035,-0.45765 0.63639,0.39251 c 0.85295,0.52609 6.19386,3.23168 6.72473,3.4066 0.35862,0.11817 0.46119,0.11233 0.69277,-0.0394 0.14951,-0.098 0.30397,-0.30618 0.34326,-0.46271 0.1271,-0.50642 -0.12069,-0.80974 -0.98532,-1.20611 -0.44277,-0.20298 -1.63176,-0.83759 -2.64221,-1.41024 -1.01045,-0.57265 -2.07309,-1.16516 -2.36142,-1.31668 -0.28833,-0.15152 -0.52423,-0.30798 -0.52423,-0.34768 0,-0.0836 0.4201,-0.25637 1.05569,-0.43423 0.69364,-0.1941 4.87972,-0.3135 8.67271,-0.24738 1.8974,0.0331 3.635,0.0254 3.86133,-0.0171 0.66292,-0.12436 0.9750298,-0.98148 0.54899,-1.50761 -0.18876,-0.23311 -0.27052,-0.24216 -2.08361,-0.23078 -2.52925,0.0159 -6.50364,-0.1203 -6.44157,-0.22073 0.0274,-0.0444 0.48832,-0.33914 1.02421,-0.65503 1.35595,-0.79929 4.56554,-3.29322 5.55827,-4.31891 0.68159,-0.70423 0.40929,-1.57971 -0.49135,-1.57971 -0.29842,0 -0.69114,0.2756 -2.34162,1.64326 -4.13041,3.42264 -6.21295,4.8175 -7.5615,5.06459 l -0.3654,0.0669 0.48673,-0.69261 c 0.2677,-0.38093 0.87767,-1.44226 1.3555,-2.3585 0.65487,-1.25573 0.87125,-1.77955 0.8788,-2.12745 0.012,-0.55353 -0.27522,-0.92948 -0.71014,-0.92948 -0.39259,0 -0.63258,0.28671 -1.30222,1.55576 -1.69812,3.21807 -3.14988,5.23844 -4.31843,6.00979 -0.42417,0.28 -1.20054,0.79164 -1.72526,1.13699 -2.49934,1.64495 -3.8528,3.56104 -4.72439,6.68834 -0.22145,0.79454 -0.44251,1.48757 -0.49126,1.54006 -0.18028,0.19413 -0.24727,-1.46316 -0.12046,-2.98015 0.29452,-3.52336 1.09534,-5.84348 2.86559,-8.30214 1.26693,-1.75961 5.46156,-5.95546 8.03551,-8.03785 0.75547,-0.61119 2.03244,-1.64566 2.83772,-2.29883 1.48089,-1.20115 1.81361,-1.61804 1.66503,-2.08619 -0.10408,-0.32791 -0.49991,-0.67119 -0.77395,-0.67119 -0.45524,0 -2.39389,1.5011 -5.14574,3.98436 -0.63359,0.57175 -1.17768,1.01384 -1.20909,0.98243 -0.0314,-0.0314 0.0954,-0.53325 0.28182,-1.11519 0.39665,-1.23826 0.60728,-3.05501 0.54986,-4.7427 -0.0375,-1.1033 -0.0465,-1.13697 -0.37184,-1.39711 -0.42302,-0.33825 -0.66305,-0.33704 -1.00518,0.005 -0.24461,0.24461 -0.27276,0.36547 -0.27276,1.17119 0,2.93146 -0.81492,6.26216 -2.02024,8.25704 -0.25304,0.41879 -1.01465,1.38543 -1.69246,2.14807 -0.67781,0.76265 -1.53568,1.7585 -1.90638,2.21301 -0.65326,0.80095 -1.52019,2.25616 -1.81777,3.05125 -0.38874,1.03867 -0.61074,1.55576 -0.66798,1.5558 -0.0346,3e-5 -0.0471,-2.60337 -0.0279,-5.78533 l 0.035,-5.78537 0.46507,-0.39991 c 0.99009,-0.85136 2.74528,-2.74337 2.96386,-3.1949 0.17837,-0.36846 0.20517,-0.53772 0.12044,-0.76058 -0.14815,-0.38966 -0.59684,-0.66994 -0.91912,-0.57416 -0.14051,0.0418 -0.79305,0.60763 -1.45008,1.25749 l -1.1946,1.18155 v -3.14803 c 0,-3.41808 -0.0331,-3.62102 -0.63493,-3.89525 -0.33556,-0.15289 -0.86612,0.0946 -0.98959,0.46167 -0.0465,0.13819 -0.0741,1.66567 -0.0615,3.39441 l 0.0231,3.14316 -0.26139,-0.17127 c -0.14377,-0.0942 -0.54796,-0.53714 -0.89821,-0.9843 -0.94228,-1.20302 -1.32068,-1.36326 -1.92811,-0.81649 -0.45169,0.40658 -0.34051,0.82548 0.51108,1.92563 0.75161,0.97099 2.25199,2.48346 2.46361,2.48346 0.07,0 0.1069,2.17554 0.10307,6.08412 -0.006,6.02997 -0.008,6.07853 -0.20685,5.45607 -0.25403,-0.79427 -1.32663,-2.82987 -1.95818,-3.71627 -0.26536,-0.37245 -0.9417,-1.17256 -1.50297,-1.77801 -1.7422,-1.87934 -2.23217,-2.64028 -3.20474,-4.97713 -0.88005,-2.11456 -1.00794,-2.75379 -1.11151,-5.55568 l -0.0775,-2.09771 -0.35734,-0.31927 c -0.19653,-0.1756 -0.41155,-0.31927 -0.47781,-0.31927 -0.0663,0 -0.29607,0.17558 -0.51067,0.39019 l -0.3902,0.39019 0.052,1.97122 c 0.0467,1.77066 0.088,2.10529 0.40593,3.28878 0.19465,0.72465 0.42042,1.51057 0.5017,1.74649 0.13381,0.3884 0.13075,0.41927 -0.0324,0.32662 -0.0991,-0.0563 -0.43021,-0.33666 -0.73581,-0.62307 -1.00254,-0.93961 -2.65473,-2.41806 -3.71375,-3.32322 -1.94525,-1.66264 -1.97544,-1.67801 -2.49429,-1.26988 -0.21631,0.17015 -0.2928,0.33155 -0.2928,0.61785 0,0.4854 0.68362,1.24339 2.22251,2.4643 0.58063,0.46065 1.48075,1.244 2.00026,1.74078 0.51951,0.49677 1.46963,1.34721 2.11138,1.88986 1.4971,1.26592 2.33756,2.06486 4.30658,4.09386 3.27507,3.37484 4.41077,6.01018 4.90619,11.38457 0.11647,1.26343 0.0915,1.70733 -0.12859,2.2888 -0.11135,0.29414 -0.15625,0.19236 -0.5916,-1.3412 -0.25912,-0.91272 -0.62575,-2.00053 -0.81475,-2.41736 -0.86686,-1.91181 -2.42181,-3.66411 -4.51075,-5.08325 -0.55007,-0.3737 -1.31775,-0.95715 -1.70595,-1.29656 -1.31117,-1.14638 -3.1045,-3.827 -3.61534,-5.40411 -0.25188,-0.7776 -0.55677,-1.23751 -0.95794,-1.44496 -0.3901,-0.20173 -0.68616,-0.1437 -1.00325,0.19665 -0.30994,0.33269 -0.27179,0.84399 0.11481,1.53853 0.18331,0.32933 0.57854,1.07384 0.87828,1.65447 0.29973,0.58063 0.69744,1.25572 0.88379,1.5002 0.18635,0.24447 0.45134,0.5902 0.58887,0.76829 l 0.25006,0.32378 -0.52115,-0.0714 c -0.28662,-0.0393 -0.83432,-0.22948 -1.2171,-0.42266 -1.53694,-0.77564 -5.29329,-3.48628 -7.44438,-5.37198 -1.11845,-0.98047 -1.40127,-1.08823 -1.80265,-0.68684 -0.30468,0.30467 -0.35775,0.67553 -0.15907,1.11159 0.25184,0.55273 4.55025,3.95894 6.07664,4.81534 0.38516,0.2161 0.67385,0.41934 0.64154,0.45165 -0.0323,0.0323 -1.88959,0.0891 -4.12729,0.12613 l -4.06853,0.0674 -0.21235,0.26234 c -0.2813,0.34751 -0.26987,0.91252 0.0261,1.28874 l 0.23843,0.30311 5.84569,-0.0748 c 4.90782,-0.0628 5.99028,-0.0485 6.74686,0.0891 0.49564,0.0901 1.03745,0.23532 1.20403,0.3226 l 0.30287,0.15869 -0.99057,0.41058 c -0.54482,0.22583 -1.51169,0.74964 -2.1486,1.16404 -0.63691,0.4144 -1.52294,0.95042 -1.96896,1.19114 -0.97283,0.52507 -1.23311,0.78219 -1.31736,1.30134 -0.0505,0.31086 -0.0123,0.44368 0.18334,0.63937 0.20399,0.204 0.32364,0.23476 0.68714,0.17663 0.47691,-0.0763 1.4936,-0.55925 2.78755,-1.32426 0.4503,-0.26622 1.09192,-0.60911 1.42583,-0.76198 0.33391,-0.15287 1.09461,-0.61079 1.69045,-1.0176 0.59585,-0.40681 1.17773,-0.73966 1.29309,-0.73966 0.33927,0 1.77272,1.03036 2.68643,1.931 1.74429,1.71935 2.75202,4.59801 2.76095,7.8869 0.003,1.18195 -0.0447,1.61264 -0.27835,2.50032 -0.34504,1.31105 -0.86759,2.43753 -1.48947,3.21085 -0.99843,1.24158 -3.09754,2.63389 -4.89583,3.24735 -1.80917,0.61716 -1.32461,0.59541 -14.23883,0.63924 -11.28164,0.0383 -11.97087,0.0518 -12.13913,0.2377 -0.31036,0.34294 -0.3381,0.81646 -0.068,1.15989 l 0.24156,0.3071 12.24096,-0.0332 12.24096,-0.0332 c 1.8807,-0.0392 5.31589,-1.83231 7.16019,-3.79023 1.36452,-1.44181 1.95267,-2.2482 2.48433,-3.4062 0.37466,-0.81605 0.48719,-0.9722 0.68063,-0.94456 0.20346,0.0291 0.23588,0.12092 0.26548,0.752 0.0418,0.8903 -0.0364,1.22558 -0.28586,1.22657 -0.25229,0.001 -0.60389,0.53751 -0.98264,1.49943 -0.58348,1.48185 -1.10727,2.19565 -2.93242,3.99611 -0.94735,0.93453 -2.1225,2.04945 -2.61145,2.4776 -0.48895,0.42815 -1.03902,0.9403 -1.22238,1.1381 -0.18336,0.1978 -0.93273,0.86636 -1.66528,1.48568 -1.31987,1.11588 -4.10946,3.73032 -5.27304,4.94195 -0.33229,0.34601 -1.1699,1.21071 -1.86135,1.92153 -1.20865,1.24252 -1.33586,1.44295 -1.26032,1.98579 0.0421,0.30271 0.3657,0.55563 0.71084,0.55563 0.29712,0 0.69687,-0.3613 3.17763,-2.872 2.61763,-2.64921 3.50692,-3.48034 5.29226,-4.94614 0.66296,-0.54431 0.82506,-0.69269 3.44697,-3.15536 0.79704,-0.74863 1.74552,-1.58943 2.10774,-1.86844 1.1175,-0.8608 2.48956,-2.28679 2.93882,-3.05433 0.23425,-0.40021 0.53187,-0.85027 0.66138,-1.00013 l 0.23548,-0.27248 -0.0664,0.77788 c -0.0365,0.42783 -0.10759,1.62025 -0.15792,2.64981 -0.077,1.57564 -0.12446,1.91285 -0.29976,2.13039 -1.01375,1.25802 -2.07591,2.38854 -3.73554,3.97596 -1.0732,1.02651 -2.44382,2.42602 -3.04582,3.11001 -0.60201,0.68399 -1.61962,1.78569 -2.26137,2.44822 -1.54196,1.59188 -1.69007,1.88238 -1.21805,2.38903 0.51956,0.5577 0.95149,0.24654 3.68328,-2.65344 1.24168,-1.31812 2.75766,-2.84833 3.36886,-3.40047 0.61119,-0.55213 1.70909,-1.62395 2.43979,-2.38181 0.7307,-0.75786 1.29592,-1.32448 1.25605,-1.25915 -0.0399,0.0653 -0.0809,4.01233 -0.0911,8.77111 -0.0177,8.22534 -0.009,8.65958 0.18205,8.79905 0.30863,0.22567 1.00992,0.18394 1.2694,-0.0755 z m 23.72357,-11.99976 c 0.36882,-0.38497 0.32975,-0.69457 -0.15286,-1.2112 -0.40943,-0.4383 -0.8623,-0.45816 -1.33709,-0.0587 -0.41772,0.35149 -0.45856,0.86754 -0.10431,1.3179 0.45404,0.57722 1.01131,0.56042 1.59426,-0.048 z m -47.48771,0.32264 c 0.29165,-0.15609 0.53403,-0.74436 0.46199,-1.12125 -0.0814,-0.42576 -0.43474,-0.75894 -0.8049,-0.75894 -0.42245,0 -1.00731,0.65039 -1.00731,1.12017 0,0.65408 0.75456,1.07881 1.35022,0.76002 z m 3.63867,-0.31345 c 0.437,-0.40822 0.4646,-0.90174 0.0724,-1.29398 -0.38233,-0.38233 -0.87709,-0.36238 -1.29154,0.0521 -0.41446,0.41446 -0.4344,0.90921 -0.0521,1.29154 0.37444,0.37444 0.83659,0.3564 1.27124,-0.0496 z m 40.06261,-0.0195 c 0.34413,-0.40898 0.36116,-0.70307 0.0685,-1.18309 -0.25704,-0.42157 -0.65756,-0.55333 -1.11102,-0.3655 -1.03863,0.43022 -0.77956,1.89049 0.33539,1.89049 0.33198,0 0.47947,-0.0713 0.70716,-0.3419 z m -43.12855,-4.77095 c 1.62046,-0.13427 1.74473,-0.19193 1.74249,-0.80849 -0.001,-0.25761 -0.0455,-0.5375 -0.099,-0.62197 -0.11573,-0.18273 -2.08385,-0.39097 -3.00188,-0.31762 -0.75556,0.0604 -1.18306,0.46251 -1.07359,1.00989 0.10701,0.53505 0.3761,0.75731 1.00908,0.8335 0.0611,0.007 0.70141,-0.0355 1.42288,-0.0953 z m 47.34072,-0.0156 c 0.31776,-0.16726 0.4056498,-0.31013 0.4077198,-0.66275 0.002,-0.32925 -0.4649898,-0.85628 -0.8213698,-0.92711 -0.12795,-0.0254 -2.18752,-0.0735 -4.57682,-0.10686 l -4.3442,-0.0606 -0.23973,0.25518 c -0.41336,0.44 -0.27588,1.31024 0.23982,1.51802 0.38077,0.15341 9.04094,0.1387 9.33458,-0.0159 z m -40.56079,-0.11113 c 0.52001,-0.27371 0.55789,-0.79966 0.0899,-1.24804 -0.27254,-0.2611 -0.44176,-0.31537 -1.15068,-0.36898 -0.88278,-0.0668 -1.92666,0.022 -2.19275,0.18644 -0.10594,0.0655 -0.16235,0.29857 -0.16573,0.68484 -0.005,0.51515 0.0283,0.6027 0.27267,0.7279 0.35828,0.18355 2.80543,0.19742 3.14661,0.0178 z m -3.46134,-19.54477 c 0.5586,-0.15515 1.05883,-0.7512 1.15203,-1.37272 0.10108,-0.67402 -0.0923,-1.19444 -0.62156,-1.67258 -0.38033,-0.3436 -0.5129,-0.39627 -0.9975,-0.39627 -1.07379,0 -1.80674,0.5674 -1.94776,1.50781 -0.10714,0.71447 0.1849,1.32302 0.83177,1.73325 0.52699,0.33421 0.92167,0.3842 1.58302,0.20051 z m 40.10367,-0.26528 c 0.5561,-0.36801 0.81649,-0.92535 0.74183,-1.58779 -0.0672,-0.59622 -0.29969,-0.95376 -0.86226,-1.32605 -0.81471,-0.53915 -1.81247,-0.33904 -2.27903,0.45709 -0.35754,0.61009 -0.38009,1.60471 -0.0487,2.14823 0.45293,0.74289 1.57761,0.88463 2.44817,0.30852 z m -37.58865,-5.30989 c 0.31004,-0.31004 0.049,-1.23538 -0.44637,-1.58235 -0.13619,-0.0954 -0.45364,-0.17344 -0.70545,-0.17344 -0.40762,0 -0.48039,0.0419 -0.66341,0.38173 -0.19912,0.36974 -0.19922,0.39352 -0.003,0.75756 0.11132,0.20671 0.33348,0.45542 0.49367,0.55268 0.34925,0.21205 1.13848,0.25007 1.32473,0.0638 z m 35.74013,-0.33789 c 0.2386,-0.68125 -0.62094,-1.5541 -1.00849,-1.02411 -0.18273,0.24991 -0.19119,0.61529 -0.0228,0.98489 0.22223,0.48772 0.86562,0.5122 1.03128,0.0392 z m -46.63119,-1.41705 c 0.86425,-0.39225 1.15478,-1.61308 0.64106,-2.69389 -0.56125,-1.18082 -2.37583,-1.23299 -3.1458,-0.0904 -0.18303,0.2716 -0.25041,0.5331 -0.25041,0.97186 0,0.90091 0.39239,1.49657 1.22318,1.85685 0.5238,0.22715 0.96163,0.21446 1.53197,-0.0444 z m 56.9236698,-0.14562 c 0.54665,-0.28907 0.99569,-0.99784 0.99569,-1.5716 0,-0.50028 -0.43898,-1.2972 -0.87364,-1.58601 -1.15901,-0.7701 -2.49584,-0.2597 -2.77909,1.06107 -0.14195,0.6619 -0.0878,1.01617 0.23825,1.55823 0.48351,0.80387 1.49213,1.02834 2.41879,0.53831 z m -10.4491098,-9.32867 c 1.13632,-0.77337 1.17001,-2.16531 0.0678,-2.79882 -0.91913,-0.52825 -1.74589,-0.46369 -2.37183,0.18522 -0.77561,0.80409 -0.78097,1.79358 -0.0135,2.48833 0.35162,0.31829 0.48364,0.35632 1.27207,0.36653 0.52999,0.007 0.75834,-0.0458 1.04547,-0.24126 z m -43.7175,-0.0731 c 0.35696,-0.16211 0.51989,-0.33529 0.7501,-0.79726 0.33719,-0.67665 0.36515,-1.05037 0.1221,-1.63206 -0.3435,-0.82212 -0.95097,-1.24811 -1.77984,-1.24811 -1.05536,0 -1.82643,0.76917 -1.82643,1.82191 0,0.90495 0.36623,1.48796 1.16682,1.85745 0.56343,0.26004 0.99156,0.25951 1.56725,-0.002 z m 7.92959,0.0341 c 1.17445,-0.46992 1.18263,-2.22616 0.014,-3.01367 -0.52449,-0.35346 -1.49301,-0.35397 -2.02126,-0.001 -0.80616,0.53855 -0.97685,1.5834 -0.38536,2.35889 0.58371,0.76529 1.49486,1.01505 2.39258,0.65585 z m 43.1113698,-0.0526 c 1.68366,-0.36108 1.89601,-2.67915 0.32081,-3.50207 -0.44683,-0.23344 -1.4063198,-0.1996 -1.8400998,0.0649 -1.32213,0.8061 -1.10137,2.87226 0.36217,3.3897 0.5482498,0.19384 0.4865098,0.1913 1.1571198,0.0475 z m -44.6641398,-7.02316 c 0.9098,-0.48111 1.19437,-1.7374 0.59775,-2.63895 -0.45231,-0.68349 -0.92143,-0.92186 -1.70296,-0.86533 -0.82252,0.0595 -1.34874,0.43044 -1.62064,1.14242 -0.66325,1.73669 1.06928,3.23788 2.72585,2.36186 z m 38.91572,-0.0122 c 1.07328,-0.70323 0.96524,-2.7923 -0.17232,-3.33211 -0.48854,-0.23183 -1.31867,-0.23199 -1.80679,-3.4e-4 -1.38572,0.65756 -1.30846,2.78713 0.12513,3.44879 0.4199,0.1938 1.48243,0.12714 1.85398,-0.11631 z m -24.40548,-1.52348 c 0.83701,-0.50213 0.99883,-1.8443 0.3117,-2.58533 -0.44533,-0.48027 -0.77813,-0.64535 -1.30104,-0.64535 -0.98061,0 -1.6336,0.62364 -1.71795,1.64074 -0.0775,0.93474 0.47341,1.65124 1.40416,1.82616 0.50184,0.0943 0.86056,0.0293 1.30313,-0.23622 z m 9.76768,0.22224 c 0.27105,-0.0683 0.61952,-0.26414 0.79416,-0.44643 0.25818,-0.26947 0.31847,-0.44282 0.35386,-1.01742 0.0361,-0.5863 0.003,-0.75073 -0.21711,-1.07133 -0.37601,-0.54819 -0.77585,-0.80467 -1.35648,-0.87012 -0.63294,-0.0713 -1.08059,0.10461 -1.50977,0.59341 -0.95299,1.08539 -0.17694,2.82109 1.30711,2.92348 0.0799,0.005 0.3626,-0.0447 0.62823,-0.11159 z m 5.07744,-2.88159 c 0.23693,-0.0658 0.57217,-0.29689 0.80566,-0.55533 0.35765,-0.39588 0.39988,-0.5076 0.39988,-1.05792 0,-1.35935 -1.07716,-2.32192 -2.29178,-2.04798 -0.93663,0.21124 -1.51849,1.01558 -1.457,2.01408 0.0821,1.33291 1.16035,2.03125 2.54324,1.64715 z m -19.93165,-0.20886 c 0.4937,-0.25347 0.77875,-0.70453 0.87112,-1.37849 0.13083,-0.9545 -0.7236,-2.0527 -1.68102,-2.16062 -0.72827,-0.0821 -1.40444,0.26967 -1.79471,0.93364 -0.56244,0.95688 -0.35274,1.92548 0.55677,2.57161 0.45338,0.3221 1.45419,0.33865 2.04784,0.0339 z m 10.11382,-2.19995 c 1.12777,-0.842 1.01902,-2.48131 -0.20617,-3.1079 -0.27181,-0.139 -0.6592,-0.25414 -0.86087,-0.25587 -1.06009,-0.009 -1.98146,1.24496 -1.69536,2.30744 0.1373,0.50989 0.68451,1.09618 1.15875,1.24149 0.49827,0.15268 1.27059,0.0635 1.60365,-0.18516 z m 38.7251198,32.57418 a 39.6875,39.6875 0 0 1 -39.6874998,39.6875 39.6875,39.6875 0 0 1 -39.6875,-39.6875 39.6875,39.6875 0 0 1 39.6875,-39.6875 39.6875,39.6875 0 0 1 39.6874998,39.6875 z" /><path
       id="path1785"
       style="fill:#000000;stroke:none;stroke-width:0"
       d="m 60.351585,195.93078 c 0.35447,-0.24829 0.27095,-0.55506 -0.24049,-0.88328 -0.52772,-0.33867 -0.92351,-0.74164 -1.34664,-1.3711 -0.16709,-0.24857 -0.33921,-0.45195 -0.38249,-0.45195 -0.0433,0 -0.2188,-0.028 -0.39005,-0.0623 l -0.31137,-0.0623 0.0477,0.4229 c 0.10122,0.89798 0.8195,1.81767 1.802,2.30727 0.58816,0.29309 0.55288,0.28877 0.82138,0.1007 z m -1.58246,-3.88364 c 0.10784,-0.21595 0.38189,-0.58532 0.609,-0.82081 0.5323,-0.55196 0.66313,-0.87756 0.43543,-1.08363 -0.0917,-0.083 -0.30394,-0.19874 -0.47161,-0.25719 -0.26966,-0.094 -0.34099,-0.0787 -0.61808,0.13266 -0.36973,0.28201 -0.87407,1.19136 -0.96275,1.73591 -0.0497,0.30505 -0.027,0.41611 0.10891,0.53468 0.40498,0.35321 0.6326,0.29204 0.8991,-0.24162 z m 2.640538,-10.43092 c -0.0384,0 -0.260864,0.35324 -0.494543,0.78497 -0.91813,1.69629 -1.070542,1.95131 -1.576132,2.64066 -0.287869,0.39249 -0.923621,1.17566 -1.41335,1.74047 -1.853748,2.13794 -2.690792,3.96243 -2.690792,5.86631 0,2.03933 0.990952,3.94803 2.612761,5.03276 1.418748,0.94892 3.22384,1.26807 4.601269,0.81287 1.455679,-0.48105 2.766249,-1.38498 3.449919,-2.37866 0.763629,-1.10991 1.133797,-2.74311 0.958597,-4.22869 -0.196769,-1.66838 -0.737511,-2.92613 -1.92288,-4.47156 -1.498648,-1.95385 -2.672748,-3.85996 -3.234427,-5.25187 -0.12143,-0.30091 -0.252002,-0.54726 -0.290422,-0.54726 z m -0.06511,3.01067 0.314192,0.63459 c 0.37995,0.76839 0.933701,1.60013 1.659331,2.49184 1.031989,1.26819 1.76159,2.49316 2.01228,3.37809 0.06672,0.23548 0.124124,0.92262 0.127124,1.52703 0.0057,1.08273 6.87e-4,1.10924 -0.347782,1.80765 -0.63317,1.26899 -1.519799,2.0688 -2.790528,2.51715 -1.458808,0.51472 -3.05319,0.10632 -4.226098,-1.08262 -1.173679,-1.18968 -1.600212,-2.82826 -1.189592,-4.57026 0.21138,-0.89676 0.609833,-1.56485 1.775602,-2.9776 1.409929,-1.70864 2.138392,-2.68504 2.425692,-3.25199 z m -33.954002,-59.3664 c -4.755425,0 -8.583456,3.82854 -8.583456,8.58397 v 62.20706 c 0,4.75543 3.828031,8.58397 8.583456,8.58397 h 36.397778 c 4.755425,0 8.583456,-3.82854 8.583456,-8.58397 v -62.20706 c 0,-4.75543 -3.828031,-8.58397 -8.583456,-8.58397 z m 18.280538,4.64468 c 0.09544,-0.008 0.193492,0.0104 0.30334,0.0522 0.50641,0.19254 0.500596,0.14081 0.503846,4.1491 l 0.0026,3.72794 c -0.293669,0.26407 -0.795078,0.40565 -1.119311,0.29559 -0.11851,-0.0476 -0.257455,-0.19767 -0.309025,-0.33331 -0.0556,-0.14618 -0.09405,-1.70944 -0.09405,-3.83905 v -3.59306 l 0.214439,-0.19275 c 0.187562,-0.16883 0.339097,-0.25373 0.498161,-0.26665 z m -18.700151,0.11885 a 3.420106,3.420106 0 0 1 3.419946,3.41995 3.420106,3.420106 0 0 1 -3.419946,3.42046 3.420106,3.420106 0 0 1 -3.419946,-3.42046 3.420106,3.420106 0 0 1 3.419946,-3.41995 z m 37.449394,0 a 3.420106,3.420106 0 0 1 3.419946,3.41995 3.420106,3.420106 0 0 1 -3.419946,3.42046 3.420106,3.420106 0 0 1 -3.419946,-3.42046 3.420106,3.420106 0 0 1 3.419946,-3.41995 z m -24.113257,1.06609 c 0.202687,0.008 0.40676,0.0812 0.5271,0.21652 0.10467,0.11775 0.525287,1.13469 0.934826,2.25981 0.40954,1.12513 0.909664,2.46425 1.111044,2.97553 0.422409,1.07246 0.471712,1.6328 0.172082,1.95441 -0.20598,0.22109 -0.597102,0.26811 -0.876432,0.10542 -0.26528,-0.15452 -0.482724,-0.6706 -1.740462,-4.13154 -0.22822,-0.62797 -0.527259,-1.44132 -0.664559,-1.80764 -0.26643,-0.71079 -0.261186,-1.08817 0.0186,-1.39733 0.11411,-0.12609 0.315111,-0.1832 0.517798,-0.17518 z m 10.713558,0.0196 c 0.0645,-0.001 0.134211,0.005 0.21084,0.0176 0.694719,0.11116 0.858316,0.7568 0.425297,1.67793 -0.13531,0.28782 -0.43587,1.03704 -0.66766,1.66501 -0.231799,0.62798 -0.524152,1.41995 -0.649572,1.7601 -0.12542,0.34016 -0.294448,0.85662 -0.375688,1.14774 -0.0812,0.29111 -0.24658,0.67692 -0.367419,0.85679 -0.18236,0.27145 -0.28619,0.33161 -0.611849,0.35554 -0.31925,0.0234 -0.420763,-0.0114 -0.544153,-0.18759 -0.24007,-0.34274 -0.180435,-0.84494 0.237195,-2.00039 0.213819,-0.59157 0.682537,-1.932 1.041796,-2.97863 0.645846,-1.88156 0.8497,-2.3037 1.301213,-2.31407 z m 13.399699,0.13022 a 2.2038831,2.2038831 0 0 0 -2.204,2.204 2.2038831,2.2038831 0 0 0 2.204,2.204 2.2038831,2.2038831 0 0 0 2.204,-2.204 2.2038831,2.2038831 0 0 0 -2.204,-2.204 z m -28.701091,2.52956 c 0.122666,-0.003 0.254287,0.0269 0.387057,0.0935 0.14439,0.0724 0.790825,0.79496 1.436605,1.6061 0.645769,0.81114 1.544988,1.90598 1.998327,2.43241 0.45333,0.52642 0.872733,1.04791 0.932243,1.1591 0.28352,0.52976 -0.07944,1.16634 -0.665075,1.16634 -0.23967,0 -0.385411,-0.0882 -0.670761,-0.40463 -0.200549,-0.22241 -0.910225,-1.06734 -1.577164,-1.8774 -0.66694,-0.81007 -1.45251,-1.7303 -1.74563,-2.04536 -0.65127,-0.7 -0.751375,-0.88298 -0.751375,-1.36891 0,-0.45488 0.287778,-0.75291 0.655773,-0.76119 z m 20.078878,0.076 c 0.427609,-0.0202 0.806669,0.26833 0.806669,0.71055 0,0.3069 -0.09022,0.44013 -0.765844,1.13016 -0.84102,0.85889 -1.875509,2.07431 -2.720248,3.1967 -0.896009,1.19052 -1.055004,1.34411 -1.395263,1.34411 -0.19895,0 -0.387458,-0.0846 -0.548287,-0.24547 -0.39575,-0.39575 -0.277775,-0.85295 0.411344,-1.59318 0.30571,-0.32839 1.236195,-1.43004 2.067574,-2.44791 0.831389,-1.01787 1.601977,-1.90273 1.712557,-1.96629 0.141105,-0.0811 0.288962,-0.12194 0.431498,-0.12867 z m -23.104016,3.62148 c 0.244004,-0.008 0.508802,0.0791 0.740007,0.26458 0.778949,0.62491 3.435631,2.58636 4.062801,2.9993 0.902969,0.59454 1.117371,1.09254 0.699182,1.62419 -0.1943,0.24702 -0.572559,0.31987 -0.944129,0.18242 -0.0785,-0.029 -0.314152,-0.1899 -0.523482,-0.3576 -0.942009,-0.75466 -2.930395,-2.23676 -3.710884,-2.76624 -0.72591,-0.49245 -0.877399,-0.6413 -0.995289,-0.97617 -0.130109,-0.36959 -0.126685,-0.41211 0.05684,-0.65887 0.147739,-0.19864 0.370946,-0.30314 0.614949,-0.31161 z m 26.199951,5.2e-4 c 0.54954,0 0.812944,0.20963 0.812354,0.6475 -5.3e-4,0.48999 -0.224526,0.71405 -1.665015,1.66708 -0.680309,0.4501 -1.729314,1.20884 -2.331124,1.68621 -0.601819,0.47737 -1.158127,0.9019 -1.236617,0.94361 -0.294409,0.15641 -0.720008,0.18997 -0.944128,0.0744 -0.1267,-0.0653 -0.268793,-0.23465 -0.315743,-0.37621 -0.16554,-0.49903 0.104407,-0.80414 1.706356,-1.93063 0.818619,-0.57564 1.960356,-1.42157 2.536796,-1.87947 0.932009,-0.74036 1.090752,-0.83251 1.437121,-0.83251 z m 2.355412,4.19974 c 0.20621,-0.002 0.359008,0.0717 0.507463,0.22014 0.361879,0.36188 0.263595,1.05272 -0.181385,1.27486 -0.236769,0.1182 -1.458537,0.5698 -3.343465,1.2361 -0.732639,0.25898 -1.665295,0.60388 -2.072225,0.76636 -0.896839,0.35811 -1.291121,0.37666 -1.574581,0.0749 -0.283939,-0.30223 -0.277,-0.82227 0.01447,-1.09606 0.12163,-0.11426 0.710011,-0.37346 1.30793,-0.57619 1.305399,-0.44259 3.721624,-1.33591 4.512903,-1.66863 0.363095,-0.15268 0.62268,-0.22981 0.82889,-0.23151 z m -30.881836,0.0512 c 0.20142,0.008 0.644803,0.12981 0.984953,0.2713 0.701809,0.29193 3.145453,1.16397 4.418852,1.57665 1.347448,0.43668 1.728958,0.99336 1.106909,1.61541 -0.36079,0.36079 -0.595663,0.35118 -1.719792,-0.0703 -0.497159,-0.1864 -1.524782,-0.54924 -2.283581,-0.80667 -2.105568,-0.71435 -2.924755,-1.03865 -3.091285,-1.22267 -0.485779,-0.53677 -0.120145,-1.39093 0.583944,-1.36374 z m 4.732011,5.11545 c 1.785358,0.003 1.773047,0.12722 1.905827,0.65061 0.11742,0.46286 -0.09906,0.78732 -0.61805,0.92707 -0.34793,0.0937 -6.7434,0.10714 -7.38818,0.0155 -0.27958,-0.0397 -0.596346,-0.45307 -0.596346,-0.77773 0,-0.14229 0.09906,-0.36548 0.220142,-0.49609 l 0.220141,-0.2372 3.799768,-0.0558 c 1.066624,-0.0155 1.861579,-0.0274 2.456698,-0.0263 z m 25.350391,0.045 c 1.423257,0.006 2.0789,0.0352 2.18798,0.0935 0.446849,0.23915 0.525478,0.80401 0.169498,1.21801 l -0.229443,0.26665 -3.814754,0.0279 -3.814238,0.0279 -0.243396,-0.24287 c -0.197229,-0.19724 -0.23764,-0.31839 -0.21394,-0.64183 0.0534,-0.72948 0.04367,-0.72779 4.271057,-0.74775 0.653277,-0.003 1.212817,-0.004 1.687236,-0.002 z m -6.324162,3.14813 c 0.2433,0 0.478441,0.11578 0.91984,0.45217 0.968339,0.73797 1.310183,0.95588 2.757972,1.75803 2.351147,1.30266 2.664436,1.57574 2.664436,2.32441 0,0.77572 -0.574919,0.90636 -1.506368,0.34209 -0.323939,-0.19624 -0.865751,-0.56212 -1.20406,-0.81287 -0.73105,-0.54182 -2.729495,-1.78305 -3.493844,-2.16989 -0.723269,-0.36604 -0.932243,-0.60365 -0.932243,-1.05988 0,-0.48332 0.334187,-0.83406 0.794267,-0.83406 z m -16.664616,0.0553 c 0.390003,0.008 0.68988,0.29888 0.68988,0.80098 0,0.50438 -0.126153,0.61266 -1.612821,1.37976 -1.220719,0.62987 -2.618338,1.50566 -3.689697,2.31252 -0.57342,0.43186 -0.936962,0.5806 -1.258322,0.51418 -0.346889,-0.0717 -0.522965,-0.31355 -0.522965,-0.71778 0,-0.62326 0.591179,-1.10717 2.579687,-2.11047 1.613149,-0.8139 2.327826,-1.25096 3.060796,-1.87223 0.253162,-0.21459 0.51944,-0.31176 0.753442,-0.30696 z m 2.149223,2.79931 c 0.444439,0 0.729154,0.28923 0.729154,0.74052 0,0.35696 -0.07559,0.46045 -1.23455,1.68724 -0.679119,0.71886 -1.6559,1.80504 -2.17041,2.41329 -0.514509,0.60825 -1.022433,1.18069 -1.128613,1.27227 -0.27046,0.23326 -0.615569,0.20712 -0.889868,-0.0672 -0.17832,-0.17831 -0.233578,-0.33406 -0.233578,-0.65887 0,-0.37944 0.04911,-0.4754 0.452169,-0.88625 0.24858,-0.25336 1.158113,-1.22942 2.021582,-2.16938 2.230528,-2.4281 2.129224,-2.33164 2.454114,-2.33164 z m 12.281421,0.002 c 0.246899,-0.001 0.399789,0.0806 0.666109,0.35657 0.466379,0.48336 1.902765,2.07291 2.299084,2.54403 0.17609,0.20932 0.696963,0.77097 1.157552,1.24798 0.78126,0.80914 0.837675,0.89399 0.837675,1.26504 0,0.63777 -0.548825,1.03167 -1.117244,0.80202 -0.065,-0.0262 -0.578503,-0.58988 -1.141532,-1.25212 -0.56303,-0.66223 -1.547828,-1.78038 -2.188497,-2.48512 -1.219709,-1.34168 -1.39752,-1.66458 -1.16117,-2.11305 0.15862,-0.301 0.269833,-0.36363 0.648023,-0.36535 z m -2.718181,1.74925 c 0.276795,-0.006 0.545214,0.15168 0.675928,0.4594 0.14606,0.34384 0.696854,1.76789 1.390613,3.5941 0.2485,0.65414 0.585245,1.46748 0.748275,1.80764 0.367649,0.76709 0.370883,0.98721 0.0186,1.33945 -0.320974,0.32097 -0.819716,0.37569 -1.076937,0.11886 -0.0875,-0.0875 -0.394669,-0.76186 -0.682129,-1.49862 -1.343408,-3.44316 -1.863969,-4.85392 -1.863969,-5.04982 0,-0.11697 0.08483,-0.32068 0.188619,-0.45269 0.165117,-0.2099 0.385713,-0.31355 0.600997,-0.31832 z m -6.694165,0.0568 c 0.14828,0 0.365372,0.0775 0.482141,0.17208 0.36082,0.29218 0.274016,0.75517 -0.457853,2.44481 -0.362679,0.83731 -0.905171,2.16472 -1.205611,2.94969 -0.30044,0.78498 -0.612468,1.50212 -0.693498,1.5937 -0.203529,0.23003 -0.891538,0.2251 -1.102258,-0.008 -0.25331,-0.2799 -0.199067,-0.92755 0.136943,-1.63349 0.161909,-0.34015 0.697192,-1.62481 1.189591,-2.8546 0.941739,-2.35203 1.135186,-2.66444 1.650545,-2.66444 z m 3.243213,0.53692 c 0.267792,0.007 0.566143,0.13863 0.665076,0.32349 0.0587,0.1096 0.09302,3.16651 0.09302,8.25686 v 8.08271 l -0.21394,0.0574 c -0.24322,0.0652 -0.693465,0.0606 -0.975134,-0.01 -0.10466,-0.0261 -0.222,-0.0962 -0.260449,-0.15554 -0.0384,-0.0594 -0.07051,-3.63104 -0.07131,-7.93699 -0.002,-8.5017 -0.009,-8.38224 0.513664,-8.58087 0.074,-0.0281 0.159816,-0.0395 0.24908,-0.0372 z m -15.809888,12.11864 c 1.577817,-0.002 4.071307,0.66049 5.626014,1.49448 0.444817,0.23861 1.472444,0.87159 2.283581,1.40611 2.061764,1.35868 2.500925,1.58186 4.281909,2.1792 1.974934,0.66239 3.104431,0.81318 4.804875,0.64079 2.306024,-0.2338 5.006215,-1.39907 7.611939,-3.28456 1.387544,-1.00402 3.426419,-1.88096 5.235856,-2.25154 0.892607,-0.18281 1.22208,-0.20418 2.418457,-0.15813 2.334211,0.0899 4.189166,0.72377 5.73505,1.95957 1.079227,0.86279 1.036407,0.77856 1.005107,1.97094 l -0.02687,1.03353 -0.380855,-0.34262 c -0.885397,-0.79684 -3.046877,-1.95144 -4.148584,-2.21588 -2.092074,-0.50217 -4.566281,-0.31876 -6.603215,0.48989 -1.569294,0.623 -2.177478,0.94204 -3.663342,1.92185 -0.811137,0.53488 -1.84973,1.16019 -2.30787,1.38958 -0.892527,0.44689 -2.432418,0.97722 -3.590995,1.2361 -0.646587,0.14447 -3.413699,0.28465 -3.805969,0.19275 -0.07849,-0.0184 -0.463789,-0.0853 -0.856279,-0.14831 -0.883777,-0.14194 -2.714347,-0.73251 -3.500044,-1.12913 -0.5961,-0.30091 -1.877956,-1.07636 -3.3507,-2.02727 -2.038234,-1.31601 -4.745163,-2.17362 -6.844027,-2.16782 -0.987127,0.003 -3.091168,0.32254 -3.697965,0.56172 -0.969917,0.38231 -2.2623,1.13584 -3.349667,1.95389 l -0.333313,0.25063 -0.05684,-1.02733 c -0.038,-0.68524 -0.02226,-1.0719 0.04754,-1.1622 0.168937,-0.21855 1.655314,-1.15186 2.531111,-1.58905 1.300117,-0.64902 3.508295,-1.17559 4.935099,-1.17719 z m 31.949988,4.00854 c 0.195255,0.001 0.394517,0.006 0.592212,0.0139 2.035744,0.0827 3.472879,0.53244 4.755266,1.48828 0.671247,0.50032 1.925644,1.71921 1.770434,1.72031 -0.05081,3.7e-4 -0.327649,-0.25004 -0.615466,-0.55656 -0.30647,-0.32643 -0.405416,-0.40267 -0.238229,-0.18448 0.15699,0.20488 0.424993,0.51202 0.595313,0.68264 0.28568,0.28618 0.304897,0.34404 0.249597,0.74724 l -0.05943,0.43719 -0.440283,-0.32918 c -1.587614,-1.18636 -2.70581,-1.72684 -4.339787,-2.09806 -0.928227,-0.21088 -1.211424,-0.23365 -2.475301,-0.20051 -2.005944,0.0526 -3.13786,0.34278 -4.961454,1.27176 -0.740317,0.37713 -1.832079,0.99863 -2.426209,1.38131 -1.948314,1.25493 -3.455496,1.91711 -5.50509,2.41949 -0.725757,0.17788 -3.899367,0.27056 -4.820894,0.14056 -0.84679,-0.11946 -2.46238,-0.52154 -3.175517,-0.79013 -0.980827,-0.36943 -2.29128,-1.06082 -3.579627,-1.88878 -1.582554,-1.01704 -3.44107,-1.90365 -4.694287,-2.23965 -0.924447,-0.24787 -1.123183,-0.26732 -2.66392,-0.25942 -1.485054,0.008 -1.768297,0.0356 -2.616894,0.26148 -1.106867,0.2946 -2.18699,0.79028 -3.300057,1.51412 -0.43511,0.28296 -0.948813,0.60937 -1.141533,0.72502 l -0.350366,0.20981 -0.06615,-0.43925 c -0.08533,-0.56901 -0.0058,-0.69972 0.921908,-1.51567 1.452644,-1.27771 2.343877,-1.76171 4.171321,-2.26446 0.59844,-0.16464 1.006745,-0.19814 2.476852,-0.20464 1.570224,-0.007 1.842219,0.0159 2.519226,0.21187 1.880874,0.54449 2.869446,1.03504 5.171777,2.5647 0.950137,0.63128 2.501534,1.33818 4.059701,1.85002 3.123041,1.0259 4.748794,1.08125 7.665165,0.26045 1.916674,-0.53944 3.555274,-1.32947 5.510258,-2.65669 1.379577,-0.93657 4.004658,-1.98349 5.510775,-2.19779 0.365345,-0.052 0.914921,-0.0786 1.500683,-0.0749 z m -31.794958,3.47416 c 2.056614,-0.0168 3.620145,0.54207 6.470406,2.31252 1.797704,1.11666 1.886205,1.16793 2.759005,1.60094 2.106761,1.04519 4.985289,1.54773 7.707023,1.34565 2.813801,-0.20891 4.769773,-0.86303 7.374227,-2.46651 2.755851,-1.69671 3.32261,-1.96275 5.280814,-2.48099 0.891407,-0.2359 1.224929,-0.27697 2.251026,-0.2775 1.894184,-9.6e-4 3.013479,0.28277 4.814693,1.22163 0.677847,0.35332 1.181031,0.70267 1.646411,1.14205 l 0.670243,0.63252 -0.06666,0.69453 -0.06718,0.69401 -0.24753,-0.23202 c -0.630327,-0.59062 -2.44299,-1.54741 -3.724837,-1.96629 -1.667564,-0.54494 -3.88364,-0.60067 -5.597074,-0.14056 -1.276547,0.34279 -3.241558,1.2811 -5.207435,2.48667 -0.936637,0.57439 -1.895646,1.15452 -2.131136,1.28881 -0.675027,0.38493 -2.58056,0.92139 -3.800284,1.07022 -2.167364,0.26445 -3.522813,0.24313 -5.238957,-0.0822 -1.930154,-0.36587 -3.222322,-0.86881 -4.882906,-1.90066 -2.042064,-1.26891 -2.618585,-1.60351 -3.395142,-1.97042 -1.223077,-0.5779 -2.56599,-1.01571 -3.494877,-1.13999 -1.546874,-0.20695 -3.494056,0.0201 -5.023983,0.58653 -1.294554,0.47932 -2.774566,1.25115 -3.422013,1.78439 l -0.285771,0.23513 -0.06408,-0.41858 c -0.124,-0.80714 -0.139214,-0.77978 0.849043,-1.53531 1.274897,-0.97468 1.517911,-1.11569 2.878378,-1.66657 1.421674,-0.57565 2.536739,-0.80655 3.948596,-0.81803 z m -0.06873,3.64474 c 1.12293,-0.0182 2.170672,0.24567 3.7021,0.83974 0.894567,0.34702 2.370675,1.16533 3.645772,2.02158 1.024537,0.688 2.933539,1.52252 4.138766,1.80868 2.551611,0.60584 6.125984,0.60828 8.474418,0.006 1.986064,-0.50917 3.368198,-1.12825 5.654952,-2.53318 2.271651,-1.39565 4.490393,-2.13575 6.407877,-2.13785 0.789977,-8.7e-4 2.278324,0.29099 3.144511,0.61701 1.387077,0.5221 2.276739,1.07891 3.223576,2.01745 l 0.645955,0.64027 -0.02687,6.99699 -0.02636,6.99699 -0.222209,0.61547 c -0.739007,2.04796 -2.501898,3.70802 -4.724259,4.44934 l -0.762745,0.25476 -17.697627,0.0155 c -9.733653,0.009 -17.80451,-0.003 -17.93534,-0.0248 -1.605014,-0.27197 -3.855121,-1.95663 -4.614188,-3.45457 -0.34913,-0.68899 -0.607883,-1.73208 -0.719853,-2.90215 -0.0666,-0.69569 -0.07787,-3.03545 -0.03307,-6.97321 l 0.0677,-5.92626 0.564824,-0.52296 c 1.362754,-1.26168 2.757649,-1.97142 4.868953,-2.47789 0.848498,-0.20354 1.549363,-0.31616 2.22312,-0.32711 z" /><path
       style="fill:#000000;stroke-width:0.0908534"
       d="m 113.09684,192.66485 -1.03111,-0.98868 -0.0172,-2.33836 -0.0172,-2.33837 0.48608,-0.46594 c 0.26734,-0.25627 0.64912,-0.56328 0.8484,-0.68225 l 0.36234,-0.21629 5.92368,-0.0341 c 3.25802,-0.0188 6.22365,-0.008 6.59027,0.0233 0.55916,0.0482 0.72738,0.10376 1.04378,0.34509 0.20745,0.15823 0.46964,0.42488 0.58264,0.59257 0.20074,0.29788 0.20546,0.36103 0.20546,2.75194 v 2.44706 l -0.38613,0.4193 c -0.21237,0.23062 -0.58271,0.61011 -0.82298,0.84333 l -0.43685,0.42402 -5.87745,0.056 c -3.2326,0.0308 -6.00011,0.0772 -6.15002,0.10304 -0.24682,0.0426 -0.36991,-0.0463 -1.30368,-0.94168 z m 2.84819,-0.8572 c 0.25748,-0.14722 0.36131,-0.26596 0.3562,-0.40734 -0.005,-0.12398 0.0471,-0.19986 0.13628,-0.20037 0.31161,-0.002 2.03289,-0.487 3.36879,-0.94961 3.36639,-1.16573 4.09244,-1.4363 4.92901,-1.83682 1.00497,-0.48114 1.24805,-0.68488 1.09804,-0.92033 -0.0853,-0.13392 -0.2484,-0.14998 -1.26813,-0.12487 -1.8206,0.0448 -2.93759,0.23381 -3.85039,0.65153 -1.48844,0.68114 -3.17987,1.12256 -3.17987,0.82986 0,-0.15155 0.23954,-0.27632 1.50273,-0.78273 0.69756,-0.27965 1.32963,-0.56943 1.40458,-0.64396 0.24236,-0.24098 -0.0546,-0.32366 -0.95396,-0.26558 -0.44972,0.029 -1.85549,0.0894 -3.12393,0.13419 -1.26844,0.0448 -2.33643,0.11473 -2.3733,0.15549 -0.0369,0.0408 -0.0916,0.85695 -0.12171,1.81378 -0.0624,1.98449 -0.0625,1.984 0.74695,2.49733 0.49412,0.31337 0.84435,0.3264 1.32871,0.0494 z m 16.39202,1.76455 c -0.3893,-0.12634 -2.01843,-0.99089 -2.30975,-1.22574 l -0.27256,-0.21972 -0.051,-2.5299 c -0.0588,-2.91465 -0.14985,-2.585 0.95967,-3.47393 l 0.63611,-0.50962 h 9.09404 9.09404 l 0.53629,0.45319 c 0.29495,0.24926 0.58608,0.51501 0.64696,0.59055 0.0809,0.10038 0.11145,0.81636 0.11356,2.65943 l 0.003,2.52208 -0.82299,0.82613 -0.82298,0.82613 -1.97075,-0.0619 c -1.86089,-0.0584 -13.08392,0.081 -14.11817,0.17534 -0.26466,0.0242 -0.58656,0.01 -0.71534,-0.0321 z m 3.66853,-1.83753 c 0.3894,-0.10053 0.51687,-0.30114 0.31782,-0.50019 -0.0736,-0.0736 -0.55962,-0.25623 -1.07994,-0.40576 -0.52034,-0.14953 -1.13004,-0.36206 -1.3549,-0.47231 -0.4038,-0.19799 -0.40916,-0.20661 -0.43541,-0.70022 -0.0162,-0.30585 0.019,-0.56123 0.0909,-0.65818 0.11148,-0.15039 0.15424,-0.14967 0.84425,0.0142 1.8364,0.43601 2.8277,0.58402 3.95212,0.59012 l 1.13567,0.006 1.26826,-0.5259 c 1.52131,-0.63082 2.09725,-0.93481 2.32877,-1.22915 0.19572,-0.24881 0.23186,-0.64624 0.0598,-0.6578 -0.0625,-0.004 -2.62793,-0.001 -5.70104,0.006 -5.11151,0.0121 -5.60065,0.0263 -5.74207,0.16662 -0.13475,0.13373 -0.15676,0.40179 -0.1716,2.0896 -0.009,1.06491 0.0193,1.97203 0.0637,2.01584 0.0444,0.0438 0.46473,0.21796 0.93404,0.38699 l 0.85329,0.30733 1.14549,-0.17186 c 0.63001,-0.0945 1.3009,-0.21198 1.49086,-0.26102 z m 8.65563,-1.13809 c 0.24626,-0.0824 0.71349,-0.32212 1.03829,-0.53259 0.57605,-0.37328 1.79577,-1.5604 2.31354,-2.2517 0.373,-0.49803 0.25412,-0.56896 -0.73875,-0.44079 -1.12504,0.14522 -1.6027,0.40636 -2.66628,1.45768 -0.96127,0.95018 -1.13262,1.28971 -0.86047,1.70506 0.165,0.25182 0.31685,0.26218 0.91367,0.0623 z m 8.78378,2.09366 -0.88607,-0.82729 -0.0458,-2.26173 c -0.0289,-1.42556 -0.0121,-2.331 0.0454,-2.44912 0.0502,-0.10307 0.41051,-0.48125 0.80074,-0.8404 l 0.70951,-0.65299 6.01364,-0.0227 c 3.30749,-0.0125 7.18441,-0.0227 8.61535,-0.0227 h 2.60172 l 0.53272,0.45903 c 0.293,0.25247 0.68604,0.57417 0.87342,0.7149 l 0.3407,0.25587 v 2.33339 2.33339 l -0.70411,0.72213 c -1.17877,1.20892 -0.0497,1.08241 -9.67563,1.08408 l -8.33554,0.001 -0.88607,-0.82728 z m 4.31402,-1.17788 c 0.34503,-0.22489 0.47747,-0.52708 0.59853,-1.36567 0.0986,-0.68308 0.14392,-0.81171 0.29344,-0.83306 0.83687,-0.11948 3.78712,-0.85203 4.6926,-1.16517 1.10781,-0.38311 1.34426,-0.52032 1.34426,-0.78005 0,-0.19371 -0.003,-0.19393 -1.83978,-0.13442 -1.01188,0.0328 -3.27072,0.06 -5.01965,0.0605 l -3.17986,7.7e-4 -0.20442,0.30028 c -0.19357,0.28433 -0.20442,0.38835 -0.20442,1.95971 v 1.65944 l 0.27875,0.27876 0.27876,0.27875 1.37932,-0.0637 c 0.96343,-0.0445 1.44057,-0.10367 1.58247,-0.19615 z m 7.74651,-0.0341 c 0.52468,-0.0943 1.17507,-0.23421 1.44531,-0.3109 0.50992,-0.14472 2.37676,-0.96067 2.89294,-1.26444 0.29647,-0.17448 0.39373,-0.46405 0.1817,-0.54102 -0.23456,-0.0852 -4.03623,0.42557 -5.65562,0.7598 -1.092,0.22538 -1.66399,0.45706 -2.00359,0.81152 -0.24429,0.25499 -0.24757,0.27074 -0.0921,0.4426 0.0887,0.098 0.24899,0.19535 0.3562,0.21633 0.5155,0.10083 2.00972,0.0416 2.87511,-0.11389 z m -48.01009,-8.17664 c -0.2277,-0.19707 -0.63522,-0.50516 -0.90561,-0.68463 -0.27039,-0.17948 -0.52871,-0.37597 -0.57405,-0.43665 -0.0469,-0.0628 -0.0603,-0.86533 -0.0312,-1.86249 l 0.0513,-1.75214 0.59055,-0.5649 c 0.3248,-0.31069 0.73031,-0.68036 0.90113,-0.82148 l 0.31058,-0.25658 9.74632,0.0493 9.74632,0.0493 0.55192,0.41974 c 0.85084,0.64707 0.84374,0.61923 0.7711,3.02351 l -0.0622,2.0596 -0.53951,0.50755 -0.53951,0.50755 -5.78683,0.0602 c -3.18275,0.0331 -7.59346,0.0602 -9.80156,0.0603 l -4.01474,8e-5 z m 7.52333,-1.27032 c 0.90571,-0.21486 0.56341,-0.57945 -1.22856,-1.30859 -0.37648,-0.15319 -0.51165,-0.49827 -0.35577,-0.90826 0.0858,-0.22563 0.1297,-0.24253 0.61701,-0.2375 0.28856,0.003 0.70863,0.0387 0.9335,0.0793 2.04721,0.36984 2.63017,0.48822 3.41373,0.69318 1.11941,0.29281 1.3487,0.26846 3.00619,-0.31927 2.24345,-0.7955 2.93797,-1.10546 2.93797,-1.31121 0,-0.10053 -0.99866,-0.12827 -5.65562,-0.15714 -3.11059,-0.0193 -6.70671,-0.0146 -7.99138,0.0104 -2.19832,0.0428 -2.34418,0.0561 -2.47884,0.22713 -0.43731,0.55536 -0.43141,0.52733 -0.36256,1.72097 0.0768,1.33161 0.0921,1.35192 1.1704,1.5596 0.72681,0.13997 5.35734,0.10247 5.99393,-0.0485 z m 22.54323,1.53923 -5.2695,-0.0469 -0.45426,-0.33935 c -0.24985,-0.18663 -0.65869,-0.47282 -0.90853,-0.63597 l -0.45427,-0.29662 -0.0588,-1.49908 c -0.0415,-1.05684 -0.0281,-1.55729 0.0454,-1.69638 0.15057,-0.28493 1.29138,-1.53505 1.65146,-1.8097 l 0.30641,-0.23371 12.31565,0.002 c 12.14053,0.001 12.3192,0.004 12.56491,0.18204 0.1371,0.0992 0.47412,0.40972 0.74896,0.68997 l 0.49969,0.50957 0.0564,1.51899 c 0.031,0.83544 0.0858,1.60703 0.12187,1.71465 0.0502,0.15009 0.0226,0.20929 -0.11886,0.25417 -0.10139,0.0322 -0.54463,0.41348 -0.98497,0.84734 l -0.80064,0.78884 -0.63597,0.0643 c -0.68413,0.0692 -10.07469,0.0622 -18.62493,-0.0138 z m -1.61943,-1.5528 c 0.0697,-0.0697 0.048,-0.22862 -0.0758,-0.55443 -0.17212,-0.45299 -0.15446,-0.77937 0.0495,-0.9137 0.0557,-0.0367 0.56272,-0.0674 1.12665,-0.0682 l 1.02532,-0.001 0.17696,0.43155 c 0.31456,0.76712 0.39984,0.88431 0.66596,0.91516 0.1392,0.0161 0.87382,-0.17408 1.63249,-0.42268 1.27646,-0.41829 3.81774,-1.12139 6.17406,-1.70819 0.53835,-0.13407 1.04521,-0.29231 1.12635,-0.35164 0.18245,-0.13341 0.10234,-0.54538 -0.13018,-0.66942 -0.09,-0.048 -3.25263,-0.11318 -7.35621,-0.15155 -7.69587,-0.072 -7.37736,-0.0872 -7.57472,0.3631 -0.0447,0.10199 -0.22442,0.3841 -0.39937,0.62691 -0.29845,0.4142 -0.31811,0.48513 -0.31811,1.14793 0,0.63266 0.0214,0.72035 0.20442,0.83941 0.35183,0.22883 0.86203,0.35595 1.91344,0.47674 1.32078,0.15174 1.6406,0.15907 1.75933,0.0403 z m -32.72739,-7.28972 c -0.30215,-0.25927 -0.67823,-0.57361 -0.83573,-0.69853 l -0.28635,-0.22713 -0.0258,-2.12988 -0.0258,-2.12987 0.75862,-0.66387 0.75863,-0.66386 h 5.10887 5.10887 l 0.35434,0.26158 c 0.19488,0.14387 0.50195,0.41984 0.68238,0.61326 l 0.32806,0.35168 -0.0572,2.13505 c -0.065,2.42688 -0.0453,2.35879 -0.88056,3.0392 l -0.47797,0.38936 -4.84426,0.0634 c -2.66435,0.0349 -4.90559,0.0786 -4.98055,0.0972 -0.075,0.0186 -0.3835,-0.17828 -0.68565,-0.43755 z m 7.8247,-1.40265 c 0.77127,-0.46242 0.90802,-0.68297 0.59766,-0.96385 -0.16222,-0.1468 -0.28144,-0.1508 -1.57122,-0.0527 -2.70359,0.2057 -2.81665,0.2056 -3.14974,-0.003 -0.27318,-0.17095 -0.29789,-0.22285 -0.27256,-0.57234 0.0274,-0.37824 0.0336,-0.38474 0.39126,-0.40991 1.11691,-0.0786 4.29078,-0.88645 4.607,-1.17263 0.21983,-0.19894 0.20494,-0.35952 -0.0392,-0.42337 -0.2635,-0.0689 -6.65157,0.0344 -7.06622,0.11428 -0.43645,0.0841 -0.51452,0.37172 -0.55651,2.05044 l -0.034,1.36082 0.23192,0.11191 c 0.14306,0.069 1.08221,0.15027 2.4511,0.21202 1.22054,0.0551 2.23708,0.11802 2.25897,0.13992 0.0219,0.0219 0.35301,0.0398 0.73582,0.0398 0.66875,0 0.72422,-0.0169 1.4158,-0.43156 z m 6.76152,1.15498 c -0.42474,-0.35703 -0.813,-0.6882 -0.8628,-0.73594 -0.0498,-0.0477 -0.11529,-0.64705 -0.14554,-1.3318 -0.0302,-0.68475 -0.0848,-1.31365 -0.12113,-1.39756 -0.0491,-0.11328 0.0954,-0.31215 0.56129,-0.77226 0.34508,-0.34083 0.75719,-0.84455 0.91579,-1.11938 0.54027,-0.93619 0.331,-0.85686 2.40437,-0.91149 1.00986,-0.0266 4.14606,-0.0188 6.96933,0.0174 2.82326,0.0362 6.1639,0.0412 7.42363,0.0112 l 2.29042,-0.0545 0.34432,0.2311 c 0.18939,0.12711 0.5345,0.41526 0.76692,0.64033 l 0.42259,0.40923 -0.0389,1.71362 c -0.0602,2.6506 -0.0248,2.45853 -0.58064,3.15214 -0.26695,0.33312 -0.50869,0.60912 -0.5372,0.61334 -0.0285,0.004 -4.07891,0.0181 -9.00089,0.0308 -4.92198,0.0127 -9.19436,0.0524 -9.49417,0.0881 l -0.54512,0.0649 z m 6.58578,-1.0834 c 0.0677,-0.21347 -0.0589,-0.47129 -0.46726,-0.95103 -0.16715,-0.19638 -0.30391,-0.43147 -0.30391,-0.52241 0,-0.28645 0.33038,-0.52877 0.72092,-0.52877 0.48797,0 0.75482,0.11564 1.35532,0.58731 0.64281,0.50491 1.6274,0.95767 2.07831,0.95571 0.53062,-0.002 1.02856,-0.3354 1.32513,-0.8864 0.20674,-0.38411 0.30049,-0.47491 0.4903,-0.47491 0.23936,0 1.616,0.4174 2.22662,0.67512 0.18578,0.0784 0.41322,0.14256 0.50543,0.14256 0.3503,0 2.47806,-1.45721 3.09769,-2.12147 0.44141,-0.47322 0.40438,-0.4794 -3.22836,-0.53875 -1.84103,-0.0301 -5.41718,-0.0302 -7.947,-2.6e-4 l -4.59967,0.0544 -0.16426,0.28093 c -0.0903,0.15451 -0.36616,0.54551 -0.61293,0.86889 l -0.44865,0.58795 0.0542,0.5805 c 0.0298,0.31928 0.12914,0.70885 0.22073,0.8657 0.14689,0.25159 0.23017,0.29338 0.70659,0.35463 0.65914,0.0847 2.96269,0.21686 4.09994,0.23514 0.7555,0.0121 0.83961,-0.003 0.89085,-0.16486 z m 36.28861,1.68412 c -0.0213,-0.0213 -4.30722,-0.0642 -9.52434,-0.0954 -9.05922,-0.0542 -9.49623,-0.0643 -9.72049,-0.226 -0.12916,-0.0931 -0.37422,-0.31439 -0.54459,-0.49174 -0.28776,-0.29954 -0.31472,-0.37914 -0.37967,-1.12085 -0.0384,-0.43913 -0.0728,-1.34323 -0.0764,-2.00912 l -0.006,-1.21072 0.79044,-0.8562 0.79044,-0.8562 h 9.79786 9.79788 l 0.42766,0.38956 c 0.23521,0.21426 0.58342,0.50439 0.77378,0.64474 l 0.34613,0.25517 -0.0326,2.11361 -0.0327,2.1136 -0.82726,0.69409 c -0.72311,0.60669 -0.87221,0.69409 -1.18417,0.69409 -0.19629,0 -0.37429,-0.0174 -0.39556,-0.0387 z m -8.56101,-1.65193 c 0.37489,-0.28012 0.34639,-0.59587 -0.066,-0.73096 -0.18441,-0.0604 -1.56415,-0.14971 -3.22529,-0.20873 -3.1145,-0.11065 -3.83262,-0.18065 -4.17854,-0.4073 -0.26963,-0.17667 -0.3718,-0.53459 -0.23702,-0.83039 l 0.10043,-0.22043 h 1.51841 c 1.8444,0 5.93876,-0.23495 7.09763,-0.40728 0.4643,-0.069 0.97535,-0.20193 1.13567,-0.29528 0.29581,-0.17227 0.45339,-0.56578 0.22966,-0.57355 -0.97551,-0.0339 -10.72614,0.0362 -11.14902,0.0801 -0.5335,0.0554 -0.60407,0.0888 -0.86311,0.40912 -0.27706,0.34258 -0.28264,0.36911 -0.31242,1.48533 -0.0437,1.63749 -0.11352,1.52726 1.05106,1.65857 1.64768,0.18577 3.40681,0.25636 6.08207,0.24406 2.45257,-0.0113 2.57092,-0.0198 2.81645,-0.20329 z m -48.74088,-7.3336 c -0.13492,-0.14126 -0.54172,-0.48422 -0.904,-0.76213 l -0.65868,-0.5053 v -1.8862 -1.88622 l 0.5224,-0.47748 c 0.68273,-0.62402 0.98835,-0.74736 1.69224,-0.68291 0.30601,0.028 4.37221,0.072 9.03601,0.0977 6.1169,0.0337 8.5338,0.0757 8.67409,0.15084 0.10695,0.0573 0.41019,0.3081 0.67385,0.55746 l 0.47938,0.45337 -0.004,1.69032 c -0.005,2.23575 -0.0371,2.38182 -0.64893,2.96972 l -0.48875,0.46964 -3.3586,0.0661 c -1.84724,0.0364 -5.92613,0.0516 -9.0642,0.034 l -5.70558,-0.0321 z m 3.68144,-1.30183 c 0.0191,-0.0578 -0.0831,-0.24175 -0.22714,-0.40884 -0.32345,-0.37514 -0.39922,-0.57284 -0.32811,-0.85616 0.0414,-0.16498 0.11671,-0.21991 0.30142,-0.21991 0.30462,0 1.06494,0.22081 1.75283,0.50906 0.57572,0.24125 1.22612,0.27702 2.27619,0.12518 0.59016,-0.0853 3.33874,-0.71371 3.98156,-0.91025 0.17003,-0.052 0.49312,-0.14937 0.71798,-0.21641 1.67916,-0.50062 1.81706,-0.56982 1.81706,-0.91172 0,-0.10718 -0.0491,-0.24395 -0.10902,-0.30391 -0.15625,-0.15625 -13.38706,-0.1581 -13.48361,-0.002 -0.0364,0.0589 -0.085,0.62621 -0.10786,1.26065 l -0.0417,1.15351 0.56763,0.38548 c 0.3122,0.21201 0.67518,0.41868 0.80662,0.45926 0.36522,0.11277 2.03456,0.0613 2.07611,-0.0641 z m 22.38246,1.54321 -3.58153,-0.0321 -0.3187,-0.24309 c -0.58441,-0.44575 -0.92172,-0.86631 -0.92974,-1.15922 -0.004,-0.15198 -0.0207,-0.37855 -0.0368,-0.50347 -0.0161,-0.12492 -0.0371,-0.86015 -0.0467,-1.63381 l -0.0175,-1.40669 0.77804,-0.68294 0.77804,-0.68295 9.24134,0.029 c 10.31276,0.0324 9.4409,-0.028 10.17306,0.70419 l 0.40043,0.40043 -0.03,1.99007 c -0.0331,2.19356 -0.008,2.08986 -0.68362,2.80447 l -0.36518,0.38613 -1.89231,9e-5 c -1.04077,6e-5 -3.69121,0.014 -5.88986,0.031 -2.19865,0.017 -5.60923,0.0165 -7.57908,-0.002 z m 0.90136,-1.79656 c 1.05021,-0.18742 1.87727,-0.36445 3.99754,-0.85562 1.99111,-0.46125 2.74036,-0.61469 4.27011,-0.87443 1.06157,-0.18026 1.76849,-0.37701 1.88696,-0.52515 0.0493,-0.0617 0.11409,-0.1938 0.14405,-0.29373 0.13348,-0.44529 0.35703,-0.42997 -6.88526,-0.47164 l -6.78218,-0.039 -0.31438,0.31439 -0.31439,0.31438 v 1.18845 c 0,1.36389 -0.0807,1.25813 0.99939,1.31015 1.40158,0.0675 2.3617,0.0458 2.99816,-0.0678 z m 24.14927,1.76822 -5.87776,-0.0471 -0.33408,-0.31799 c -0.58877,-0.56041 -0.67104,-0.85838 -0.67331,-2.43848 l -0.002,-1.39367 0.46294,-0.51425 c 0.25461,-0.28284 0.58559,-0.72889 0.7355,-0.99123 0.14991,-0.26233 0.31208,-0.5014 0.36039,-0.53126 0.0483,-0.0298 1.8944,-0.0499 4.10244,-0.0446 2.20804,0.005 4.99307,-0.0303 6.18895,-0.0794 l 2.17434,-0.0891 0.40101,0.33805 c 0.22056,0.18594 0.52995,0.44772 0.68754,0.58175 l 0.28653,0.24369 v 1.7791 1.77912 l -0.51508,0.55058 c -0.78913,0.84354 -1.40278,1.26831 -1.79537,1.24278 -0.17836,-0.0116 -2.96928,-0.0423 -6.20205,-0.0681 z m -0.75384,-1.7281 c 0.45383,-0.17255 0.24832,-0.38564 -0.6733,-0.69811 -1.01696,-0.34481 -1.15431,-0.45299 -1.03405,-0.8145 0.10896,-0.32752 0.40022,-0.37906 2.19468,-0.38831 1.29001,-0.007 3.06832,-0.20696 3.39645,-0.38257 0.12178,-0.0651 0.16127,-0.17144 0.14109,-0.37975 l -0.028,-0.28923 -3.74397,-0.0237 c -3.71102,-0.0235 -3.74486,-0.0221 -3.84511,0.16527 -0.0556,0.10394 -0.30262,0.41146 -0.54886,0.68337 -0.31289,0.34551 -0.44655,0.56932 -0.44385,0.74326 0.007,0.47297 0.23195,1.22383 0.40371,1.34942 0.13377,0.0978 0.59359,0.12598 2.05693,0.12598 1.0402,0 1.99202,-0.0409 2.12429,-0.0911 z m -36.84172,-6.61897 c 0,-0.23989 0.0572,-0.31109 0.38335,-0.4775 0.21085,-0.10757 0.838,-0.30801 1.39368,-0.44543 1.4002,-0.34627 1.8571,-0.55774 1.8571,-0.85951 0,-0.12931 -0.0608,-0.25843 -0.13513,-0.28696 -0.0743,-0.0285 -0.61604,0.0148 -1.20381,0.0964 -4.20039,0.58265 -4.47304,0.67259 -5.18764,1.71122 l -0.26845,0.39019 -2.91928,-0.007 -2.91928,-0.007 -0.60786,-0.54122 c -0.33432,-0.29761 -0.73854,-0.66381 -0.89827,-0.81372 l -0.29042,-0.27256 -0.0424,-1.61414 c -0.049,-1.86564 -0.10666,-1.70742 0.95571,-2.62178 l 0.63619,-0.54756 2.05664,0.0607 c 1.66116,0.049 2.1638,0.0349 2.61392,-0.0735 0.48042,-0.11564 1.46405,-0.12369 7.13198,-0.0583 3.61609,0.0417 7.50687,0.0778 8.64619,0.0803 l 2.07149,0.005 0.57472,0.56784 0.57472,0.56783 -0.0443,1.95334 c -0.0497,2.19287 -0.0447,2.17417 -0.78466,2.89749 l -0.40822,0.39903 -3.02701,0.025 c -1.66485,0.0138 -4.6317,0.0539 -6.59299,0.0892 l -3.566,0.0641 z m -6.04175,-1.8752 c 0.59963,-0.16508 1.80571,-0.4727 2.68017,-0.68358 0.87447,-0.21088 2.24408,-0.55008 3.04359,-0.75378 1.33638,-0.34046 1.54528,-0.36972 2.58932,-0.36259 1.31161,0.009 3.88535,0.35374 5.67352,0.76007 0.74252,0.16871 1.42933,0.26718 1.86249,0.26702 0.86945,-2.6e-4 2.28629,-0.17044 2.43514,-0.29238 0.0625,-0.0511 0.11357,-0.26699 0.11357,-0.47962 0,-0.21262 -0.0511,-0.4261 -0.11357,-0.47438 -0.17729,-0.13708 -2.09276,-0.55281 -3.248,-0.70497 -2.45547,-0.32339 -4.19039,-0.42295 -8.02423,-0.46045 -3.51821,-0.0344 -3.92238,-0.0233 -4.22468,0.11621 -0.28338,0.13077 -0.72484,0.15918 -2.89908,0.18654 l -2.5648,0.0323 -0.0994,0.369 c -0.13565,0.50373 -0.24296,1.93541 -0.16156,2.15544 0.11633,0.31447 1.18808,0.75851 1.62011,0.67123 0.12492,-0.0253 0.71774,-0.18096 1.31737,-0.34605 z m 23.6115,1.73775 c -0.29431,-0.22124 -0.72371,-0.58017 -0.95422,-0.79762 l -0.4191,-0.39537 -0.0585,-1.31736 c -0.0322,-0.72456 -0.0837,-1.51009 -0.11457,-1.74563 -0.0558,-0.42675 -0.0542,-0.43004 0.46858,-0.94044 0.28854,-0.28171 0.68781,-0.63041 0.88727,-0.7749 l 0.36264,-0.2627 11.20977,0.006 11.20977,0.006 0.42945,0.36439 c 0.23621,0.20041 0.54079,0.49386 0.67686,0.65209 l 0.2474,0.2877 0.002,1.82731 0.002,1.82732 -0.5788,0.59323 c -0.31834,0.32627 -0.67608,0.65661 -0.79497,0.73408 -0.19079,0.12433 -1.42095,0.14705 -10.48259,0.19353 -5.64653,0.0289 -10.55719,0.0734 -10.91258,0.0987 l -0.64615,0.0461 -0.53512,-0.40225 z m 3.6445,-1.82378 c 0.24985,-0.0778 1.19018,-0.28916 2.08963,-0.46968 2.03494,-0.4084 2.73942,-0.66803 3.37043,-1.24215 0.47369,-0.43098 0.69584,-0.8957 0.51476,-1.07679 -0.13425,-0.13424 -8.82186,-0.14283 -9.13198,-0.009 l -0.24984,0.1078 v 1.39512 c 0,1.59227 -0.0553,1.48719 0.90853,1.7264 0.46044,0.11427 0.56036,0.10774 1.27195,-0.0831 0.42474,-0.11392 0.97667,-0.27077 1.22652,-0.34859 z m 8.41772,0.0721 c 0.98182,-0.51593 2.07584,-1.82081 2.07584,-2.47593 0,-0.20212 -0.0139,-0.20494 -0.70412,-0.14231 -0.93001,0.0844 -1.12001,0.17462 -1.96651,0.93388 -0.83846,0.75206 -1.05294,1.04575 -1.05376,1.44291 -0.001,0.64389 0.69001,0.74515 1.64855,0.24145 z m -43.71424,-6.74697 -0.6814,-0.54948 -0.0454,-2.28774 -0.0454,-2.28774 0.49407,-0.46242 c 0.64826,-0.60673 0.87069,-0.83786 1.25384,-1.30281 l 0.31819,-0.38612 h 6.61391 c 3.63766,0 6.67753,0.0245 6.75527,0.0542 0.0778,0.0298 0.43882,0.40735 0.8024,0.83892 l 0.66104,0.78468 0.0287,1.04629 c 0.0158,0.57546 -0.009,1.62648 -0.0556,2.33563 -0.0941,1.43989 -0.12283,1.50506 -0.97718,2.21829 l -0.39263,0.32777 -6.11564,0.0579 c -3.3636,0.0318 -6.52448,0.0813 -7.02417,0.10999 l -0.90854,0.0521 z m 6.10494,-1.27789 c 0.68435,-0.0972 1.56336,-0.25901 1.95334,-0.35955 1.66471,-0.42916 1.64653,-0.41754 1.30785,-0.8363 -0.17218,-0.21289 -0.19063,-0.21482 -2.48472,-0.25991 -2.57007,-0.0505 -2.6113,-0.0604 -2.6113,-0.62689 0,-0.54082 0.19998,-0.73588 0.75469,-0.73609 0.25951,-9e-5 1.06465,-0.0636 1.7892,-0.14128 0.72456,-0.0776 2.36633,-0.17363 3.6484,-0.21337 2.29001,-0.071 2.33818,-0.0764 2.73767,-0.31058 0.40741,-0.23876 0.58716,-0.48365 0.45326,-0.61754 -0.12423,-0.12424 -4.94478,-0.18566 -8.16769,-0.10408 l -3.10001,0.0785 -0.60613,0.3949 c -0.33337,0.2172 -0.64073,0.46052 -0.68302,0.54072 -0.0628,0.11914 -0.15537,2.85909 -0.11002,3.25753 0.0222,0.19501 3.60635,0.14877 5.11848,-0.0661 z m 12.6531,1.16561 c -0.38763,-0.36742 -0.76013,-0.79958 -0.82778,-0.96038 -0.0869,-0.20656 -0.12301,-0.73906 -0.12301,-1.81465 v -1.52229 l 0.54773,-0.5212 c 0.3578,-0.34047 0.6533,-0.541 0.85219,-0.57831 0.16746,-0.0314 3.73977,-0.041 7.93846,-0.0214 l 7.634,0.0357 0.36466,0.24132 c 0.20056,0.13272 0.47018,0.37966 0.59914,0.54875 0.23413,0.30695 0.23449,0.31019 0.23449,2.13621 v 1.82878 l -0.52766,0.56138 -0.52766,0.56138 -7.44472,0.0211 c -4.09459,0.0117 -7.57305,0.0505 -7.72989,0.0863 -0.26388,0.0603 -0.3378,0.0153 -0.98995,-0.60283 z m 12.31602,-1.20695 c 0.83529,-0.3394 1.89821,-1.03495 1.96042,-1.28285 0.0957,-0.38122 -0.0198,-0.43393 -0.81739,-0.37307 -0.95433,0.0729 -1.68254,0.27331 -2.24112,0.61701 -0.37451,0.23044 -0.44864,0.32052 -0.44864,0.54516 0,0.34465 0.38413,0.71469 0.7419,0.71469 0.1436,0 0.50578,-0.0994 0.80483,-0.22094 z m -6.0894,-0.31569 c 0.27484,-0.11553 0.77341,-0.28688 1.10795,-0.38077 0.83827,-0.23525 1.5605,-0.56387 2.22918,-1.01427 0.66118,-0.44534 0.7451,-0.58453 0.42564,-0.70599 -0.31718,-0.12058 -8.82109,-0.11826 -8.89568,0.002 -0.12173,0.19696 -0.16315,1.96155 -0.051,2.17117 l 0.11098,0.20737 2.2866,-0.035 c 2.1418,-0.0327 2.31825,-0.0482 2.7863,-0.245 z m 32.20751,2.07267 c -0.34979,-0.0404 -4.55501,-0.0709 -9.34495,-0.0678 l -8.70898,0.006 -0.54045,-0.53261 c -0.90725,-0.89408 -0.91586,-0.91773 -0.98406,-2.70349 -0.0326,-0.85476 -0.0359,-1.60171 -0.007,-1.6599 0.0287,-0.0582 0.37778,-0.37627 0.77575,-0.70684 0.39797,-0.33058 0.95435,-0.9092 1.23639,-1.28584 l 0.51281,-0.68479 5.44133,-0.0282 c 2.99273,-0.0155 6.98477,-0.058 8.87121,-0.0945 1.88643,-0.0365 3.52179,-0.0433 3.63413,-0.0151 0.11512,0.0289 0.28201,0.20168 0.38245,0.39593 0.098,0.18956 0.52278,0.67917 0.94392,1.08803 l 0.76572,0.74339 -0.0175,2.07306 -0.0175,2.07307 -0.51757,0.52636 c -0.61306,0.62348 -1.17878,0.97765 -1.53314,0.95982 -0.141,-0.007 -0.54256,-0.046 -0.89235,-0.0864 z m -16.66127,-1.63136 c 0.26916,-0.0524 0.95954,-0.15413 1.53419,-0.22604 1.51246,-0.18923 2.08314,-0.27784 2.13712,-0.33182 0.0917,-0.0917 -0.0554,-0.31168 -0.30808,-0.46097 -0.14019,-0.0828 -0.72039,-0.27713 -1.28933,-0.43183 -0.56894,-0.1547 -1.05069,-0.29751 -1.07055,-0.31737 -0.0607,-0.0607 0.0698,-0.44286 0.2164,-0.63372 0.12689,-0.16518 0.29263,-0.18571 1.97541,-0.24471 2.11022,-0.074 3.17356,-0.18329 4.83504,-0.49708 2.13461,-0.40314 2.44309,-0.53459 2.22239,-0.94698 -0.10235,-0.19123 0.0229,-0.18746 -7.34505,-0.22065 -2.92484,-0.0132 -2.59387,-0.0968 -3.28644,0.83012 -0.19175,0.25663 -0.4939,0.55638 -0.67143,0.6661 -0.36225,0.22388 -0.37907,0.31247 -0.18168,0.95692 0.0765,0.24985 0.17766,0.75355 0.22473,1.11934 0.0471,0.36578 0.10908,0.70307 0.1378,0.74953 0.0674,0.10907 0.2666,0.10659 0.86948,-0.0108 z m -5.46152,-5.99558 c -0.22486,-0.0395 -1.75801,-0.11564 -3.40699,-0.16921 -1.64899,-0.0535 -3.27155,-0.12222 -3.60568,-0.15257 -0.33414,-0.0303 -1.80761,-0.005 -3.27438,0.0565 -3.04522,0.12753 -2.88576,0.15523 -3.65893,-0.63568 l -0.45427,-0.46469 -0.0306,-1.44386 -0.0306,-1.44385 0.37608,-0.408 c 0.20684,-0.22439 0.58856,-0.57185 0.84826,-0.77211 l 0.47218,-0.36412 6.96912,-0.0293 6.96912,-0.0293 0.39,0.37059 c 0.2145,0.20382 0.56493,0.5046 0.77874,0.66839 l 0.38874,0.29781 -0.0354,1.55313 c -0.0331,1.44902 -0.048,1.56151 -0.22349,1.678 -0.10343,0.0687 -0.4464,0.33263 -0.76216,0.58657 -0.65362,0.52566 -1.07784,0.80075 -1.21007,0.7847 -0.05,-0.006 -0.27483,-0.0434 -0.49969,-0.0829 z m -10.00686,-1.62167 c 0.0849,-0.0538 0.104,-0.16589 0.0614,-0.35999 -0.14025,-0.63855 -0.23541,-0.61357 2.59314,-0.68052 2.69664,-0.0638 3.32168,-0.14187 4.65815,-0.58173 0.78902,-0.25969 1.28598,-0.55089 1.28598,-0.75353 0,-0.11377 -0.47877,-0.13388 -3.36158,-0.14126 -1.84886,-0.005 -4.28492,-0.0397 -5.41347,-0.0777 l -2.05191,-0.0691 -0.1251,0.30202 c -0.0781,0.18857 -0.1264,0.66033 -0.12857,1.256 l -0.004,0.954 0.49969,0.10622 c 0.59836,0.12719 1.81305,0.15515 1.98577,0.0457 z"
       id="path2016" /><path
       style="fill:#000000;stroke-width:0.0891856"
       d="m -223.33406,194.23329 c -0.17168,-0.0746 -1.31548,-0.41765 -2.54179,-0.76234 -3.07483,-0.86428 -3.27235,-0.92218 -5.03896,-1.47703 -0.85842,-0.26961 -1.91258,-0.58584 -2.34261,-0.70272 -0.43003,-0.11688 -1.33304,-0.39131 -2.00667,-0.60984 -0.67366,-0.21851 -1.48568,-0.46359 -1.80452,-0.54459 -0.31883,-0.081 -0.86747,-0.24388 -1.2192,-0.36191 -0.35171,-0.11804 -0.99385,-0.31287 -1.42696,-0.43297 -0.43311,-0.12008 -1.38948,-0.41904 -2.12526,-0.66431 -0.73578,-0.24529 -1.73911,-0.56376 -2.22963,-0.70771 -0.49052,-0.14395 -1.65439,-0.48985 -2.58637,-0.76867 -2.35134,-0.70341 -2.87156,-0.84351 -4.14713,-1.11675 l -1.11481,-0.23881 -0.0581,-0.48399 c -0.0319,-0.26619 -0.062,-6.07257 -0.0669,-12.90306 l -0.009,-12.41907 0.20067,0.002 c 0.11036,0.001 1.00333,0.20489 1.98437,0.45274 0.98104,0.24786 2.04457,0.50809 2.36342,0.5783 0.31883,0.0702 1.2419,0.2905 2.05126,0.48954 0.80935,0.19904 1.81268,0.44292 2.22964,0.54196 0.41693,0.099 1.13934,0.29656 1.60533,0.43893 0.46599,0.14237 1.20846,0.35582 1.64993,0.47434 0.44147,0.11853 1.0836,0.30389 1.42697,0.41194 0.34336,0.10801 1.00557,0.28948 1.47155,0.40319 0.466,0.1137 1.22854,0.31555 1.69452,0.44857 0.466,0.133 1.06801,0.29172 1.33779,0.35269 0.26979,0.061 0.85173,0.22072 1.29319,0.35501 0.44146,0.13428 1.0234,0.30131 1.29319,0.37116 1.11225,0.28799 2.19878,0.58338 2.40801,0.65466 0.12262,0.0418 0.64437,0.20405 1.15941,0.36061 0.51504,0.15655 1.79931,0.56473 2.85392,0.90709 1.05462,0.34235 2.01378,0.65074 2.13148,0.68531 l 0.21399,0.0629 0.019,13.17269 0.019,13.17271 -0.18844,-0.003 c -0.10364,-0.002 -0.32891,-0.0645 -0.5006,-0.13912 z m -8.18674,-6.41252 c -0.0144,-0.29431 0.0149,-1.27758 0.0652,-2.18504 0.0725,-1.30767 0.14021,-1.82569 0.32656,-2.49719 0.32257,-1.16239 0.33727,-2.85053 0.0385,-4.41469 -0.17335,-0.90741 -0.21065,-1.45008 -0.24519,-3.5674 -0.0438,-2.68817 -0.0665,-2.81701 -0.52463,-2.9912 -0.16995,-0.0646 -0.30605,-0.0422 -0.57374,0.0944 -0.4744,0.24202 -0.64772,0.53976 -0.72071,1.23809 -0.0925,0.88457 0.0635,4.40574 0.2275,5.13702 0.23976,1.06904 0.26723,2.34534 0.0825,3.83497 -0.12157,0.98065 -0.16584,1.93301 -0.16584,3.56742 v 2.22964 l 0.57971,0.053 c 0.98349,0.0899 0.94025,0.1136 0.91016,-0.49893 z m -6.19136,-1.55103 c 0.0541,-2.16966 -0.3821,-3.31844 -1.84446,-4.85754 -0.37953,-0.39945 -0.78522,-0.86673 -0.90152,-1.03841 -0.11631,-0.17169 -0.55998,-0.67335 -0.98593,-1.11482 -1.35366,-1.403 -1.8656,-2.33303 -2.31512,-4.20578 -0.55387,-2.30754 -0.99117,-3.98863 -1.08473,-4.17003 -0.19471,-0.37751 -0.36533,-0.49813 -0.70465,-0.49813 -0.77916,0 -0.91547,0.81749 -0.39011,2.33963 0.17383,0.50359 0.45252,1.4775 0.61933,2.16423 0.43026,1.77132 0.69938,2.53901 1.2778,3.64499 0.54765,1.04716 0.97019,1.58282 2.86785,3.63566 0.74827,0.80946 1.30089,1.49267 1.45489,1.79868 0.26096,0.51853 0.41859,1.469 0.41989,2.53181 2.5e-4,0.30497 0.0447,0.57931 0.0989,0.61283 0.12762,0.0789 0.95266,0.20255 1.23956,0.1858 0.22243,-0.013 0.22303,-0.0154 0.24831,-1.02892 z m 2.08293,-10.16908 0.21055,-0.1706 -0.0238,-2.75022 c -0.0325,-3.7375 -0.0568,-3.98813 -0.42536,-4.3903 l -0.2919,-0.31851 -0.32553,0.15525 c -0.59509,0.28378 -0.61227,0.40298 -0.56279,3.90538 0.048,3.39809 0.0724,3.55707 0.56012,3.66143 0.47021,0.10058 0.64362,0.082 0.85882,-0.0924 z m -5.63791,-0.69896 c 0.0586,-0.21962 0.06,-0.65594 0.004,-1.27089 -0.0468,-0.51504 -0.14305,-1.91971 -0.21385,-3.12149 -0.13761,-2.33563 -0.25263,-2.94465 -0.62155,-3.29124 -0.16022,-0.15053 -0.3182,-0.20234 -0.60361,-0.198 -0.21263,0.003 -0.54497,0.008 -0.73853,0.009 -0.41836,0.004 -0.49216,0.0965 -0.49396,0.61963 -0.001,0.33173 0.0422,0.43151 0.27129,0.6243 0.22598,0.19016 0.28775,0.32872 0.36074,0.80916 0.0992,0.65264 0.38143,2.6714 0.57993,4.14712 0.16977,1.2623 0.34758,1.8927 0.54871,1.94531 0.0855,0.0224 0.3044,0.0454 0.48645,0.051 0.31011,0.01 0.33664,-0.0109 0.42025,-0.32409 z m 2.62611,0.11041 c 0.1996,-0.19959 0.26381,-0.82532 0.1996,-1.94499 -0.11476,-2.0013 -0.14841,-2.63641 -0.23323,-4.40199 -0.0868,-1.80637 -0.14857,-2.13014 -0.47778,-2.5036 -0.26438,-0.2999 -0.75594,-0.27371 -1.07295,0.0572 -0.23361,0.24385 -0.24493,0.29352 -0.20822,0.91416 0.0213,0.36096 0.0828,1.03757 0.13661,1.50356 0.15595,1.35133 0.28158,2.86964 0.37555,4.53884 0.0545,0.96679 0.12829,1.60051 0.19609,1.6822 0.24161,0.29114 0.85969,0.37928 1.08433,0.15464 z m 17.87358,5.68664 c -0.0137,-7.24743 -0.0552,-13.23734 -0.0924,-13.31091 -0.0548,-0.10846 0.0972,-0.17424 0.80267,-0.34742 0.47861,-0.11752 1.25144,-0.34964 1.71744,-0.51588 0.466,-0.16621 1.34309,-0.44214 1.9491,-0.61316 0.606,-0.17101 1.16787,-0.34522 1.24858,-0.38713 0.13981,-0.0726 1.28702,-0.39244 3.13448,-0.87399 0.46599,-0.12147 0.9476,-0.25583 1.07022,-0.29859 0.45883,-0.15998 3.37275,-0.88923 4.10253,-1.02671 0.84592,-0.15937 1.18568,-0.24515 6.37676,-1.60998 0.44147,-0.11607 1.2642,-0.3085 1.82831,-0.42761 1.82913,-0.38624 4.52402,-1.0195 5.19094,-1.21978 0.35788,-0.10747 1.01189,-0.28521 1.45337,-0.39497 l 0.80267,-0.19956 0.0552,0.36768 c 0.0304,0.20222 0.0801,5.97739 0.11048,12.83369 l 0.0552,12.46601 -0.19967,0.0806 c -0.10983,0.0444 -0.60103,0.16815 -1.09154,0.27515 -2.00863,0.43814 -4.77704,1.21712 -8.38343,2.35894 -0.98104,0.31061 -2.44591,0.75185 -3.25527,0.98052 -1.31575,0.37174 -3.16722,0.93606 -4.54845,1.38632 -1.07604,0.35079 -5.0005,1.51901 -5.79706,1.72565 -1.70296,0.44179 -3.20128,0.88462 -4.73867,1.40054 -0.86493,0.29025 -1.6163,0.52773 -1.6697,0.52773 -0.0694,0 -0.10419,-3.75193 -0.12192,-13.17714 z m 15.06425,4.89283 c 0.19559,-0.1417 0.67179,-0.63333 1.05821,-1.09252 0.38642,-0.4592 1.02503,-1.19906 1.41915,-1.64414 1.39006,-1.56984 2.58744,-3.04147 4.05832,-4.9878 0.76199,-1.00831 1.52569,-2.37308 1.84655,-3.29986 0.22477,-0.64924 0.24632,-0.82189 0.23931,-1.9175 -0.007,-0.97515 -0.0436,-1.31129 -0.19672,-1.76851 -0.40205,-1.20066 -1.17152,-2.29494 -1.9237,-2.73576 -1.16182,-0.68087 -2.61385,-0.64845 -4.05755,0.0906 -0.32308,0.16539 -0.69338,0.39336 -0.8229,0.5066 -0.33003,0.28853 -1.0867,1.29182 -1.31556,1.74433 -0.1055,0.20846 -0.21613,0.37904 -0.24599,0.37904 -0.0299,0 -0.42034,-0.37327 -0.86774,-0.82946 -0.93127,-0.9496 -1.42914,-1.24861 -2.42024,-1.45356 -0.9916,-0.20507 -1.8581,-0.0617 -2.92714,0.48463 -1.38401,0.70719 -1.9518,1.40021 -2.38675,2.9132 -0.17241,0.59971 -0.20553,0.9268 -0.2077,2.05126 -0.002,1.20397 0.0214,1.41564 0.23727,2.11618 0.62887,2.04082 1.87521,3.74395 5.59056,7.63953 1.40965,1.47803 2.0943,2.06136 2.41944,2.06136 0.0811,0 0.30757,-0.11594 0.50318,-0.25763 z m -17.8145,-20.25261 c -0.0765,-0.0448 -0.63571,-0.20956 -1.24277,-0.36623 -0.60705,-0.15667 -1.30702,-0.37374 -1.55548,-0.48238 -0.24846,-0.10868 -0.67248,-0.26173 -0.94226,-0.3402 -0.26979,-0.0785 -1.29319,-0.38192 -2.27423,-0.67435 -1.9372,-0.57744 -4.08274,-1.17214 -5.35112,-1.48324 -0.44147,-0.10823 -1.20401,-0.3206 -1.69453,-0.47183 -1.10816,-0.34166 -1.2821,-0.38823 -4.94979,-1.32517 -2.80372,-0.71622 -3.84021,-0.9714 -5.57409,-1.37224 -0.39242,-0.0907 -1.17501,-0.27246 -1.73911,-0.40385 -0.5641,-0.13139 -1.3467,-0.31344 -1.73912,-0.40455 -0.39242,-0.0911 -0.91415,-0.16685 -1.15941,-0.16828 -0.55804,-0.003 -0.66552,-0.0737 -1.97779,-1.29616 -0.57998,-0.54031 -1.47592,-1.34247 -1.99096,-1.78258 -0.51504,-0.4401 -1.51837,-1.32299 -2.22963,-1.96195 -0.71126,-0.63898 -1.72426,-1.51435 -2.25113,-1.94529 -0.91279,-0.74659 -1.13791,-0.98891 -1.13791,-1.22479 0,-0.12262 0.36656,-0.0693 1.24859,0.18143 1.84042,0.52329 3.105,0.8434 5.08356,1.28684 0.51505,0.11542 1.41805,0.33835 2.00667,0.49538 1.52384,0.40653 2.17393,0.56986 3.38905,0.85145 0.58862,0.13642 1.91302,0.46344 2.94313,0.72671 1.03008,0.26327 3.35783,0.85778 5.17275,1.32114 11.74353,2.9981 11.04956,2.79268 11.36842,3.36533 0.27361,0.49144 0.55495,0.81162 2.17742,2.47803 0.69249,0.71126 1.8604,1.9554 2.59535,2.76475 0.73496,0.80936 1.40066,1.51945 1.47934,1.57799 0.19549,0.14541 0.64411,0.74149 0.55553,0.73812 -0.0393,-0.001 -0.13399,-0.0394 -0.21048,-0.0841 z m 4.11486,-0.72479 c 0.14781,-0.18663 0.67826,-0.79583 1.17878,-1.35377 0.50051,-0.55794 1.22358,-1.37256 1.60681,-1.81025 0.38324,-0.43771 0.8247,-0.93555 0.98104,-1.10632 0.15634,-0.17078 0.43219,-0.49747 0.61301,-0.72598 0.18082,-0.2285 0.46295,-0.55031 0.62696,-0.71512 0.42179,-0.42387 0.76434,-0.90621 0.83034,-1.16918 0.0617,-0.24584 0.44226,-0.37645 2.76239,-0.94803 0.58863,-0.14501 2.21403,-0.55268 3.61201,-0.90595 1.39798,-0.35327 3.20398,-0.79434 4.01334,-0.98017 0.80936,-0.18582 1.83276,-0.43965 2.27423,-0.56405 1.67186,-0.47115 5.69644,-1.48384 7.49157,-1.88507 0.58862,-0.13156 1.87289,-0.45915 2.85393,-0.72796 4.0911,-1.12101 4.40224,-1.20191 5.47715,-1.42394 0.36445,-0.0753 1.04259,-0.27266 1.50696,-0.43863 0.99741,-0.3565 1.62229,-0.4741 1.62229,-0.30532 0,0.15458 -0.5628,0.67732 -1.44697,1.34399 -0.40595,0.30609 -1.11934,0.9263 -1.58534,1.37824 -0.466,0.45195 -1.04792,0.99145 -1.29319,1.19888 -0.24525,0.20743 -0.66666,0.58404 -0.93644,0.83689 -0.26979,0.25287 -0.95206,0.87648 -1.51616,1.38583 -0.56409,0.50934 -1.2227,1.11981 -1.46358,1.35658 -0.49475,0.48631 -0.46663,0.47361 -1.43494,0.64837 -1.52895,0.27595 -3.99678,0.79559 -5.52949,1.16432 -0.88294,0.21241 -2.40801,0.57551 -3.38905,0.80688 -0.98104,0.23138 -2.3255,0.56142 -2.98771,0.73343 -0.6622,0.17202 -1.72573,0.42859 -2.36341,0.57015 -0.63767,0.14158 -1.74134,0.41585 -2.45261,0.60949 -0.71125,0.19366 -1.55405,0.41632 -1.87288,0.49481 -1.92285,0.47339 -6.22555,1.75348 -8.22442,2.44684 l -1.22337,0.42437 z m -2.49681,-0.5947 c -0.11853,-0.13401 -0.29913,-0.38412 -0.40133,-0.5558 -0.17821,-0.29936 -0.18794,-0.46925 -0.23743,-4.14712 -0.0403,-2.99495 -0.0829,-3.99125 -0.19433,-4.54846 -0.25973,-1.29845 -0.76607,-2.41186 -1.74396,-3.83496 -0.58172,-0.84654 -1.02123,-1.32395 -2.15186,-2.33734 -1.02279,-0.91674 -1.86891,-1.36562 -3.19701,-1.69606 -0.86405,-0.21498 -1.11759,-0.23796 -2.64999,-0.24013 -1.42585,-0.002 -1.83815,0.029 -2.60038,0.19579 -1.42179,0.31103 -1.9946,0.24855 -2.25955,-0.24649 -0.13133,-0.24542 0.0307,-0.5911 0.35594,-0.75927 0.15129,-0.0783 0.68478,-0.24713 1.18552,-0.37533 1.34673,-0.34474 3.02237,-0.33087 5.54811,0.0459 2.17201,0.32406 2.59647,0.43631 3.22826,0.85381 1.05835,0.69938 2.80778,2.32788 3.34072,3.1098 0.45118,0.66197 0.55941,0.66049 0.49891,-0.007 -0.0567,-0.62512 -0.48101,-1.58576 -1.09016,-2.4681 -0.98916,-1.43275 -1.52697,-1.97783 -2.72419,-2.76104 -1.34539,-0.88014 -2.25525,-1.49517 -3.11977,-2.10884 -1.28072,-0.9091 -2.69659,-1.51942 -4.32548,-1.86451 -1.33218,-0.28223 -1.736,-0.41101 -1.96574,-0.62683 -0.48171,-0.45255 -0.0899,-1.15598 0.64387,-1.15598 1.01752,0 3.0011,0.58698 4.7555,1.40725 0.96141,0.44951 3.12533,1.98137 3.89272,2.75571 0.40458,0.40823 0.75775,0.74224 0.78485,0.74224 0.18295,0 -0.17035,-0.9303 -0.62661,-1.64994 -0.41997,-0.66241 -1.67361,-2.00939 -2.53481,-2.72354 -0.72459,-0.60085 -2.09369,-1.47033 -3.43364,-2.18058 -0.82885,-0.43934 -1.1559,-0.69527 -1.28414,-1.00487 -0.2327,-0.5618 0.24321,-1.06634 0.90102,-0.9552 0.67792,0.11454 2.57117,1.19715 3.86136,2.20806 0.84192,0.65967 2.23687,1.98093 2.58986,2.45304 0.19429,0.25986 0.49809,0.66119 0.67512,0.89185 0.32691,0.42593 0.49883,0.72824 1.63327,2.87199 0.35042,0.66221 0.74025,1.36454 0.86629,1.56075 0.12603,0.19621 0.39904,0.7079 0.60669,1.13711 0.20764,0.4292 0.41424,0.78037 0.45908,0.78037 0.13874,0 0.0902,-0.95551 -0.0946,-1.85888 -0.21199,-1.03699 -0.83414,-2.84326 -1.29533,-3.76067 -0.54859,-1.09133 -1.63487,-2.84718 -2.23406,-3.61114 -0.69927,-0.89156 -1.68282,-1.84847 -2.89425,-2.81587 -1.73609,-1.38635 -2.04935,-1.70347 -2.05068,-2.07595 -6.6e-4,-0.20494 0.55302,-0.77145 0.75409,-0.77145 0.641,0 2.73501,1.66738 4.39914,3.50285 1.22876,1.35528 3.03812,4.20998 3.27711,5.17042 0.0336,0.1349 0.11687,0.24527 0.18514,0.24527 0.0985,0 0.1241,-0.20179 0.1241,-0.97666 0,-1.4836 -0.0532,-1.65632 -1.11562,-3.61639 -0.23926,-0.44147 -0.56773,-0.9933 -0.72993,-1.2263 -0.73538,-1.05639 -1.00242,-1.42963 -1.76021,-2.46012 -1.41569,-1.92519 -1.48622,-2.08833 -1.12338,-2.5979 0.26198,-0.36792 0.63324,-0.49677 0.9519,-0.33038 0.45052,0.23523 0.60296,0.43391 2.09854,2.73514 0.60913,0.93725 1.41115,2.34986 1.41115,2.48548 0,0.0555 0.0558,0.10091 0.12402,0.10091 0.19337,0 0.21052,-0.46695 0.11299,-3.0769 -0.11859,-3.17377 -0.11259,-3.1953 0.94706,-3.39123 0.18664,-0.0345 0.3054,0.012 0.48228,0.18888 l 0.23467,0.23466 -0.0584,2.91082 c -0.0356,1.7754 -0.0255,2.96197 0.0257,3.042 0.0461,0.0722 0.0962,0.11229 0.11114,0.0892 0.015,-0.0231 0.10736,-0.20255 0.20542,-0.39875 0.3069,-0.61414 1.19562,-2.09923 1.87721,-3.13692 0.75381,-1.14765 1.31484,-1.7712 1.67491,-1.86157 0.475,-0.11922 0.98605,0.3352 0.97103,0.86346 -0.009,0.2916 -0.58295,1.2443 -0.96563,1.60083 -0.66114,0.61597 -2.20155,2.9167 -2.63534,3.93609 -0.14286,0.33572 -0.46897,0.9603 -0.7247,1.38796 l -0.46495,0.77756 -0.0303,1.36007 c -0.021,0.94048 -2.5e-4,1.36008 0.0669,1.36008 0.0535,0 0.0972,-0.0406 0.0972,-0.0901 0,-0.16467 0.71584,-1.54277 1.35272,-2.60424 0.59074,-0.98455 1.26609,-1.83417 2.77777,-3.49452 0.66927,-0.73511 0.8878,-0.94735 1.84478,-1.79178 0.62275,-0.54951 1.29637,-0.93816 1.62483,-0.93744 0.3393,7.9e-4 0.72387,0.37373 0.72387,0.70207 0,0.40809 -0.23462,0.67332 -1.33237,1.50617 -1.32832,1.00778 -2.55604,2.2463 -3.63378,3.66578 -1.09852,1.44682 -0.99302,1.28905 -1.58835,2.37518 -0.93185,1.70008 -1.84584,4.18734 -1.96421,5.34529 -0.0975,0.95402 -0.0683,1.49492 0.0832,1.54478 0.0613,0.0202 0.11148,-0.006 0.11148,-0.0561 0,-0.051 0.12541,-0.30515 0.27868,-0.56484 0.38028,-0.64427 1.31162,-2.36339 2.06767,-3.81659 0.34451,-0.66221 0.72635,-1.36454 0.8485,-1.56075 0.5929,-0.95226 2.49857,-3.03869 3.57867,-3.91812 0.32135,-0.26165 1.23333,-0.86426 2.02661,-1.33913 1.21705,-0.72854 1.5177,-0.87118 1.92472,-0.9132 0.44819,-0.0463 0.4961,-0.0324 0.67582,0.19613 0.22666,0.28816 0.24216,0.49322 0.0634,0.83887 -0.1379,0.26668 -0.35258,0.41437 -2.0627,1.4191 -1.38242,0.8122 -2.76812,1.84088 -3.55974,2.64262 -1.24014,1.25597 -2.43278,2.97568 -2.51774,3.6304 -0.0481,0.37066 -0.0432,0.38083 0.11898,0.24894 0.2681,-0.21797 1.41306,-1.19276 1.4623,-1.24496 0.32662,-0.34622 2.4197,-2.02403 2.89853,-2.32345 1.36384,-0.85282 3.99011,-1.6898 5.30227,-1.6898 0.53394,0 0.6316,0.0273 0.83936,0.23512 0.28221,0.28221 0.2921,0.41539 0.0555,0.74756 -0.20701,0.29073 -0.65031,0.4522 -2.54061,0.92546 -0.68672,0.17193 -1.4292,0.37656 -1.64993,0.45472 -0.36882,0.13063 -2.89071,1.41183 -3.53791,1.79738 -0.93253,0.55554 -1.44404,0.88918 -1.67943,1.09547 -0.90603,0.79399 -1.64106,1.21116 -1.50381,0.85349 0.0282,-0.0736 0.007,-0.13378 -0.0473,-0.13378 -0.0542,0 -0.0987,0.0588 -0.0987,0.1308 0,0.0719 -0.17058,0.32313 -0.37905,0.5582 -0.88994,1.00347 -1.99518,3.22904 -2.09382,4.2162 l -0.049,0.49052 0.24324,-0.22297 c 0.13377,-0.12263 0.79219,-0.76637 1.46315,-1.43053 1.67301,-1.65606 3.85137,-3.19563 4.15961,-2.93982 0.0848,0.0704 0.31417,0.0879 0.68811,0.0523 0.30845,-0.0293 1.4766,-0.077 2.5959,-0.10583 1.65809,-0.0427 2.23633,-0.024 3.12148,0.10113 1.26561,0.17888 1.67258,0.3192 1.97782,0.68196 0.21071,0.25041 0.21496,0.27702 0.0845,0.52925 -0.18042,0.34889 -0.62767,0.61367 -1.03729,0.61409 -0.1809,1.8e-4 -0.58223,-0.0583 -0.89185,-0.12992 -1.8432,-0.42647 -5.34723,-0.51507 -6.32319,-0.15988 -0.68899,0.25076 -1.55843,0.79501 -2.52133,1.57832 -1.51942,1.23604 -2.31401,2.1847 -3.06693,3.6616 -0.87542,1.71722 -0.9805,1.95367 -1.04828,2.35928 -0.0365,0.21846 -0.0724,2.26526 -0.0797,4.54845 l -0.0133,4.15126 -0.34118,0.51281 c -0.18765,0.28206 -0.36737,0.51209 -0.39939,0.51121 -0.032,-9.9e-4 -0.1552,-0.11126 -0.27374,-0.24526 z m 2.66865,-4.94818 c 6.5e-4,-3.40369 0.14104,-4.19321 1.08178,-6.0869 0.93509,-1.88233 2.96059,-3.69216 4.92703,-4.40243 0.86414,-0.31213 2.37537,-0.3172 3.5781,-0.012 1.02464,0.26001 1.64992,0.56925 1.64992,0.81601 0,0.15724 -0.67205,0.80983 -1.01318,0.98387 -0.44559,0.22733 -0.60876,0.20649 -2.64343,-0.33745 -0.8584,-0.22948 -1.70121,-0.43346 -1.87288,-0.45328 -0.41893,-0.0484 -0.94587,0.21924 -0.91079,0.46256 0.0396,0.27446 1.0316,1.172 1.62829,1.47321 1.4033,0.70839 3.55384,0.94254 4.52102,0.49225 0.58653,-0.27307 1.24235,-0.88088 1.88055,-1.74287 0.27239,-0.36789 0.73853,-0.95542 1.03587,-1.30562 0.75524,-0.88948 1.10781,-1.51481 1.31009,-2.32361 0.0958,-0.38294 0.18961,-0.74195 0.20854,-0.79778 0.0244,-0.0719 0.30319,-0.0423 0.95516,0.10124 1.55422,0.34229 2.8434,0.64851 3.73012,0.88602 0.46598,0.12482 1.77032,0.46385 2.89852,0.75342 1.12819,0.28955 2.3924,0.62693 2.80934,0.74974 0.77888,0.22939 2.18597,0.54863 3.21067,0.72843 l 0.57971,0.10167 -0.57971,0.19017 c -0.31883,0.10462 -0.92182,0.30723 -1.33999,0.45033 -0.41816,0.14309 -0.91982,0.28809 -1.11481,0.32221 -0.195,0.0341 -1.71908,0.3996 -3.38684,0.81216 -1.66776,0.41257 -3.61424,0.89285 -4.32549,1.06731 -0.71125,0.17446 -1.51392,0.37946 -1.78371,0.45556 -0.26978,0.0761 -1.11259,0.29724 -1.8729,0.49141 -0.7603,0.19417 -1.6633,0.4316 -2.00667,0.52761 -0.34336,0.096 -1.86842,0.48003 -3.38904,0.85335 -3.47051,0.85202 -5.39521,1.47905 -5.39605,1.75796 -5e-4,0.1885 -2.95983,3.86552 -3.41098,4.23829 -0.0771,0.0636 -0.29229,0.35464 -0.47827,0.64659 -0.186,0.29196 -0.37021,0.53084 -0.40934,0.53084 -0.0391,0 -0.071,-1.09364 -0.0706,-2.43031 z m -5.76038,1.56075 c -1.82657,-1.77693 -3.21834,-3.30996 -3.56002,-3.92139 -0.24762,-0.44309 -0.45224,-0.6912 -0.66889,-0.81108 -0.88819,-0.49141 -6.31024,-2.01416 -12.26299,-3.44396 -1.3244,-0.31811 -2.72908,-0.66303 -3.1215,-0.76646 -0.39242,-0.10343 -0.87401,-0.22721 -1.07022,-0.27503 -0.1962,-0.0478 -0.85841,-0.23055 -1.47155,-0.40606 -0.61316,-0.17552 -1.77703,-0.48996 -2.58639,-0.69877 -0.80935,-0.20881 -1.83275,-0.48324 -2.27423,-0.60982 -0.44146,-0.12659 -1.00172,-0.25569 -1.24502,-0.28689 -0.28152,-0.0361 -0.39501,-0.0812 -0.31215,-0.1242 0.15332,-0.0794 1.84059,-0.46128 2.98414,-0.67536 0.44147,-0.0827 2.14714,-0.49189 3.79039,-0.90946 1.64323,-0.41756 3.42917,-0.85078 3.96874,-0.96272 0.53958,-0.11192 1.47546,-0.32816 2.07975,-0.48051 0.60428,-0.15235 1.13606,-0.27699 1.18171,-0.27699 0.0457,0 0.0828,0.13043 0.0825,0.28985 -5e-4,0.43109 0.41021,1.47551 0.78538,1.99655 0.18143,0.25195 0.63087,0.89409 0.99875,1.42696 1.35609,1.96424 2.28979,2.61326 3.59455,2.49854 0.98659,-0.0867 3.32746,-0.71239 4.08717,-1.09241 0.48506,-0.24263 0.96927,-0.81192 0.96927,-1.13958 0,-0.29739 -0.24373,-0.36805 -1.24859,-0.36197 -0.6526,0.004 -0.91319,0.0577 -1.8729,0.38638 -1.11149,0.38066 -1.92715,0.52781 -2.3447,0.42302 -0.26843,-0.0673 -1.13353,-0.82917 -1.13353,-0.99817 0,-0.17928 0.53787,-0.57721 1.03623,-0.76665 0.57004,-0.21667 1.7901,-0.36495 2.37731,-0.28893 1.1395,0.14754 3.55626,1.06426 4.5626,1.73069 0.96886,0.64161 1.70109,1.50723 2.49001,2.94364 0.56934,1.0366 0.7818,1.8467 0.86488,3.29758 0.0972,1.69823 0.10474,4.9052 0.0114,4.9052 -0.0403,0 -0.35179,-0.2709 -0.69214,-0.602 z m 11.36826,-16.23174 c -0.0877,-0.57089 0.41927,-0.95437 1.97124,-1.4912 1.11116,-0.38437 1.39131,-0.45075 2.64483,-0.62671 1.30571,-0.18329 2.61068,-0.17727 3.01157,0.0139 0.4197,0.20014 0.57404,0.57075 0.36839,0.88462 -0.25603,0.39075 -0.6317,0.47782 -2.47666,0.57399 -1.81882,0.0948 -2.06178,0.12585 -3.79683,0.48512 -1.10321,0.22843 -1.70349,0.28427 -1.72254,0.16026 z m -19.0308,-0.51723 c -0.53959,-0.0629 -1.70346,-0.14034 -2.58638,-0.17218 -1.0427,-0.0376 -1.73329,-0.10342 -1.9704,-0.18794 -0.7558,-0.26929 -0.72641,-0.91245 0.0554,-1.21205 0.81569,-0.31259 3.37524,-0.14985 4.76173,0.30275 1.03911,0.33921 1.87539,0.79488 1.91016,1.04077 0.0166,0.11709 -0.0235,0.24691 -0.0892,0.2885 -0.15857,0.10047 -0.88408,0.0797 -2.08135,-0.0598 z"
       id="path2055" /><path
       style="fill:#000000;stroke-width:0.0963713"
       d="m -132.52587,200.92026 c -0.34911,-0.23411 -1.03788,-0.723 -1.53061,-1.08643 -0.49272,-0.36342 -1.15607,-0.82958 -1.47409,-1.03591 -0.31803,-0.20633 -0.79507,-0.51568 -1.0601,-0.68744 -0.49921,-0.32353 -2.92599,-1.67953 -3.00578,-1.67953 -0.0248,0 -0.85493,-0.53253 -1.84455,-1.18341 -0.98962,-0.65087 -2.05413,-1.3339 -2.36559,-1.51785 -1.04836,-0.61916 -1.30544,-0.98709 -1.17511,-1.68181 0.0512,-0.27281 0.19033,-0.42906 0.75749,-0.85058 0.95663,-0.71098 2.20082,-1.52003 3.01662,-1.96157 0.37592,-0.20348 1.11317,-0.66564 1.63831,-1.02703 0.52515,-0.3614 1.82216,-1.2326 2.88225,-1.93598 1.06009,-0.70339 2.59337,-1.72803 3.4073,-2.27696 1.66913,-1.12573 1.92188,-1.19982 2.43061,-0.71242 l 0.27828,0.26661 0.0258,2.26853 0.0258,2.26853 0.33729,0.0696 c 0.54109,0.11169 2.3388,-0.0893 3.55287,-0.39716 4.51957,-1.14619 8.38942,-3.31108 11.70886,-6.55022 3.03007,-2.95679 5.60884,-7.05517 6.89587,-10.95946 0.84452,-2.56195 1.19214,-4.36424 1.34991,-6.99895 0.1061,-1.77199 -0.0549,-4.41503 -0.36599,-6.00966 -0.40255,-2.06317 -1.18867,-4.51364 -2.11823,-6.60288 -1.70656,-3.83556 -3.30483,-6.07111 -6.573,-9.1939 -1.4982,-1.43153 -4.07768,-3.20048 -6.22646,-4.26994 -1.50653,-0.7498 -1.94525,-1.11187 -2.31559,-1.91106 -0.21433,-0.46247 -0.2209,-0.51923 -0.0844,-0.72761 0.0815,-0.12432 0.28973,-0.32966 0.46284,-0.45631 0.69883,-0.5113 1.64557,-1.4212 1.86484,-1.79232 0.42934,-0.72662 0.22119,-2.11048 -0.50415,-3.35181 -0.31739,-0.5432 -0.32173,-0.56344 -0.10996,-0.51329 0.12126,0.0287 0.74088,0.1249 1.37693,0.21376 1.8059,0.25229 3.66867,1.04512 6.21645,2.64585 4.67379,2.93645 7.76576,5.96106 11.15816,10.91506 1.06213,1.55104 2.13697,3.43119 2.61149,4.56807 0.15177,0.36365 0.44905,1.05147 0.66061,1.52851 1.15558,2.60568 2.115125,6.1047 2.484283,9.05893 0.575466,4.60537 0.215561,9.92423 -0.925988,13.68477 -0.160901,0.53005 -0.357864,1.20224 -0.4377,1.49376 -0.298101,1.08856 -1.290625,3.43167 -2.265655,5.34864 -1.96356,3.86047 -6.19073,9.16347 -9.15407,11.48377 -1.37096,1.07347 -4.45882,3.07601 -5.81812,3.77317 -1.62848,0.83522 -4.72268,2.06855 -7.13697,2.84475 -1.21123,0.38942 -3.96427,0.88853 -5.45087,0.98821 -0.5503,0.037 -1.10493,0.10584 -1.23251,0.15321 l -0.23196,0.0861 0.0622,1.78801 0.0622,1.78802 -0.28062,0.28061 c -0.4149,0.41491 -0.79651,0.37987 -1.57927,-0.14504 z m -13.41284,-5.0363 c -1.20266,-0.10213 -2.06897,-0.26346 -2.72744,-0.5079 -1.7348,-0.64401 -5.71045,-2.57446 -6.84168,-3.32211 -1.09231,-0.72193 -3.33331,-2.47167 -4.48256,-3.49993 -2.22979,-1.99503 -5.63361,-6.16886 -7.29067,-8.93991 -0.61386,-1.02655 -2.06278,-4.02758 -2.4521,-5.07884 -1.72904,-4.66875 -2.22775,-7.53921 -2.22353,-12.7981 0.002,-2.72186 0.0216,-3.06055 0.26346,-4.57765 0.47092,-2.9549 0.5851,-3.43362 1.53995,-6.4569 0.81364,-2.57612 1.8685,-4.94633 3.03226,-6.81324 1.51963,-2.43783 1.60297,-2.55929 3.06155,-4.46181 1.12044,-1.46147 4.29891,-4.70457 5.54426,-5.65701 2.13153,-1.63019 5.13484,-3.50485 7.02415,-4.38447 3.74481,-1.74349 7.51922,-2.79513 10.99735,-3.06413 1.3015,-0.10066 1.18091,0.10882 1.10239,-1.91486 l -0.0679,-1.75155 0.25635,-0.30466 c 0.52792,-0.62739 0.79499,-0.55105 2.90138,0.82939 1.62947,1.0679 2.91468,1.87683 3.42118,2.15335 2.16948,1.18437 2.58629,1.44776 3.85487,2.43586 0.34452,0.26836 1.08581,0.76099 1.64728,1.09475 1.24428,0.73963 2.15111,1.52268 2.30565,1.99096 0.21753,0.65912 -0.0483,0.88872 -3.35002,2.89369 -1.94617,1.1818 -5.02766,3.20286 -9.02188,5.91719 -0.89117,0.6056 -1.20711,0.69294 -1.57486,0.43536 -0.3756,-0.26308 -0.44205,-0.71426 -0.40277,-2.73434 l 0.0367,-1.88466 -0.24093,-0.12231 c -0.80142,-0.40687 -4.12268,0.21588 -6.88767,1.29145 -2.31263,0.8996 -5.74556,3.03815 -7.75004,4.8279 -0.78733,0.70297 -2.6854,2.63065 -2.88995,2.93503 -0.0861,0.1281 -0.32506,0.42485 -0.53102,0.65944 -0.20598,0.23458 -0.48787,0.62523 -0.62643,0.8681 -0.2797,0.49026 -0.62666,1.04941 -1.23854,1.99597 -0.22462,0.34748 -0.48287,0.82977 -0.57388,1.07177 -0.091,0.242 -0.29984,0.65683 -0.46406,0.92185 -0.5215,0.84165 -1.65105,4.17891 -2.10723,6.22586 -0.34535,1.54969 -0.4221,2.10205 -0.58781,4.23047 -0.37871,4.86395 0.53616,9.20639 2.95419,14.02206 1.34796,2.68457 3.1645,5.06033 5.68128,7.43023 2.08337,1.96178 3.74493,3.04975 7.21506,4.72429 0.82157,0.39646 1.59789,0.77286 1.72517,0.83643 0.70193,0.35063 0.53562,0.72241 -1.0053,2.24737 -0.74437,0.73667 -1.31845,1.38513 -1.35493,1.5305 -0.10459,0.4167 0.0162,1.06878 0.29799,1.60984 0.27835,0.53428 0.65898,1.03471 1.66218,2.18538 0.33128,0.37997 0.60232,0.7548 0.60232,0.83294 0,0.0782 -0.0109,0.13479 -0.0241,0.12588 -0.0132,-0.008 -0.19756,-0.0309 -0.40957,-0.0489 z m 2.69841,-20.93626 c -0.65065,-0.15871 -0.91554,-0.43358 -0.91554,-0.95007 0,-0.57249 0.17978,-0.6259 2.38769,-0.70937 2.41735,-0.0914 3.0028,-0.23836 3.82503,-0.96028 0.37916,-0.33291 0.93366,-1.20744 1.1052,-1.7431 0.0874,-0.27285 0.18563,-0.37756 0.42153,-0.44927 0.30118,-0.0916 1.97795,-0.23603 2.88588,-0.24867 l 0.45813,-0.007 0.43283,0.95958 c 0.43667,0.96807 0.96966,1.65344 1.50478,1.93494 0.31744,0.16701 1.48279,0.30537 3.21755,0.38204 1.67706,0.0741 2.28243,0.18723 2.64791,0.49477 0.39295,0.33065 0.48661,0.84671 0.20481,1.12853 l -0.20781,0.20783 -8.83944,0.015 c -4.86169,0.008 -8.96954,-0.0168 -9.12855,-0.0556 z m 5.30043,-6.64482 c -2.5286,-0.8693 -3.91792,-1.90676 -5.29281,-3.95235 -0.77211,-1.14875 -1.12111,-1.94305 -1.47194,-3.35009 -0.22002,-0.88238 -0.2605,-1.24981 -0.25858,-2.34717 0.003,-1.53729 0.17801,-2.44688 0.70967,-3.68166 0.95137,-2.20956 3.26477,-4.43391 5.60791,-5.39204 2.52274,-1.03156 5.57914,-1.0313 7.97286,5.5e-4 1.8187,0.78409 3.55318,2.2676 4.68967,4.01113 1.0313,1.58215 1.48535,3.15371 1.4864,5.1447 8.1e-4,1.48327 -0.25236,2.76003 -0.77653,3.9166 -0.32027,0.7067 -1.14643,1.91341 -1.81443,2.65022 -0.21624,0.23852 -0.39379,0.46246 -0.39453,0.49764 -0.002,0.0901 -1.42606,1.25628 -1.83243,1.50041 -0.99007,0.59482 -3.37101,1.40877 -3.56235,1.21784 -0.0763,-0.0762 -0.12846,-3.57031 -0.0576,-3.85292 0.0341,-0.13584 0.9422,-1.13888 2.06796,-2.28415 3.35516,-3.4133 3.45467,-3.55105 2.91417,-4.03399 -0.40366,-0.36067 -0.88895,-0.36608 -1.41216,-0.0157 -0.40824,0.27338 -1.44995,1.15456 -2.16663,1.83276 -0.23853,0.22571 -0.74635,0.64895 -1.12851,0.94053 l -0.69482,0.53016 -0.0448,-0.31055 c -0.18417,-1.27614 -0.27209,-2.49829 -0.34816,-4.84002 -0.0482,-1.48413 -0.13572,-2.86334 -0.19446,-3.06494 -0.0587,-0.20159 -0.22683,-0.50087 -0.37354,-0.66507 -0.22003,-0.24626 -0.31295,-0.28696 -0.53045,-0.23237 -0.55289,0.13877 -0.66271,1.00388 -0.78744,6.20302 -0.0533,2.22179 -0.0943,2.81887 -0.19357,2.81887 -0.0693,0 -0.15351,-0.0446 -0.1872,-0.0991 -0.0337,-0.0545 -0.48077,-0.40941 -0.9935,-0.78867 -0.51274,-0.37924 -1.32255,-0.98029 -1.79959,-1.33564 -1.00329,-0.74736 -1.91402,-1.24544 -2.27785,-1.24573 -0.19217,-2e-4 -0.28999,0.0761 -0.40167,0.31299 -0.28504,0.60476 -0.19737,0.73004 2.24208,3.20436 1.25417,1.27211 2.39692,2.45719 2.53943,2.63353 0.24859,0.30757 0.25865,0.36435 0.24779,1.39738 -0.0206,1.95673 -0.11642,2.99987 -0.27779,3.02305 -0.0795,0.0114 -0.6216,-0.14323 -1.20465,-0.34368 z"
       id="path2125" /><path
       style="fill:#000000;stroke-width:0.104628"
       d="m 18.905039,79.332679 c -0.77711,-0.392637 -1.255534,-1.089578 -1.255534,-1.828992 0,-0.708109 0.297141,-1.497602 0.762726,-2.026534 0.59052,-0.670867 1.073651,-0.883974 2.206898,-0.973453 0.524658,-0.04143 9.593567,-0.07259 20.153138,-0.06926 l 19.19922,0.006 0.559584,0.309956 c 0.692474,0.383562 1.400569,1.155016 1.565531,1.705613 0.290079,0.968195 0.05031,1.897761 -0.647541,2.510483 l -0.386264,0.339146 -19.221736,2.97e-4 c -10.571954,2.1e-4 -20.022135,0.02408 -21.000405,0.05314 -0.978274,0.02907 -1.849299,0.01714 -1.935617,-0.02648 z m 5.657612,-7.193992 c -0.424787,-0.449723 -0.530857,-0.704485 -0.530762,-1.274814 2.07e-4,-1.157507 0.954519,-2.389884 2.223672,-2.871543 0.618225,-0.234624 0.760851,-0.246244 2.64144,-0.215252 3.407916,0.05616 4.230569,-0.148858 5.568811,-1.387866 1.203146,-1.11393 2.033195,-2.545088 2.57306,-4.436425 l 0.22836,-0.800029 0.05231,-27.429958 c 0.02877,-15.086475 0.08078,-27.4584138 0.115569,-27.4931968 0.03479,-0.03478 0.340828,0.07395 0.680083,0.241629 1.040591,0.514322 1.409644,0.641221 1.864822,0.641221 0.534793,0 1.602147,-0.348918 2.099206,-0.686233 0.201899,-0.13701 0.378158,-0.238759 0.391688,-0.226106 0.01352,0.01266 0.05036,12.3350878 0.08184,27.3831938 0.04625,22.109261 0.08353,27.450555 0.194244,27.831021 0.07536,0.258953 0.229158,0.843328 0.341779,1.298612 0.392415,1.586337 1.488411,3.341159 2.564678,4.106355 1.038073,0.738044 1.345734,0.797298 4.488616,0.864498 l 2.830558,0.06052 0.808684,0.399761 c 0.944401,0.466852 1.539438,1.123724 1.793782,1.980193 0.278835,0.93894 0.176381,1.403475 -0.438379,1.987637 l -0.302141,0.287101 -14.98772,0.02678 -14.987721,0.02678 z M 63.205668,53.160133 c -0.776638,-0.47359 -0.97784,-1.192398 -0.56195,-2.007612 0.505425,-0.990712 1.796839,-1.126891 2.593894,-0.273521 0.587866,0.629397 0.271285,1.801077 -0.606198,2.243567 -0.568864,0.286861 -0.998369,0.298179 -1.425746,0.03757 z m -48.33328,-0.101705 c -0.838241,-0.511175 -0.967012,-1.521785 -0.28531,-2.239139 0.600619,-0.632033 1.199619,-0.754074 1.91353,-0.389864 0.760261,0.387856 0.926425,1.214145 0.411657,2.047057 -0.456067,0.737928 -1.360826,0.996044 -2.039877,0.581946 z m 8.952444,-0.951717 c -0.121006,-0.2261 0.02533,-1.093261 0.22513,-1.333991 0.172707,-0.208101 0.587757,-0.162142 0.717022,0.07939 0.08563,0.16 0.08008,0.292843 -0.02186,0.52314 -0.07515,0.169773 -0.172225,0.30868 -0.215722,0.30868 -0.0435,0 -0.07909,0.08475 -0.07909,0.18833 0,0.415077 -0.440459,0.58017 -0.625485,0.234446 z m -3.661145,-1.843987 c -0.735493,-0.319013 -0.996329,-0.737394 -0.831619,-1.333917 0.132582,-0.480177 0.736748,-1.011476 1.150197,-1.011476 0.713955,0 1.560222,0.72592 1.561218,1.3392 5.94e-4,0.394867 -0.280825,0.81864 -0.664737,1.000819 -0.441301,0.209412 -0.741585,0.21074 -1.215059,0.0054 z m -6.42674,-3.801989 c -0.960828,-0.633424 -0.937321,-1.937583 0.04698,-2.606704 0.687696,-0.467489 1.822456,-0.111358 2.151055,0.675085 0.322724,0.772388 0.02527,1.483684 -0.793404,1.897266 -0.56906,0.28748 -1.004512,0.298131 -1.404632,0.03435 z m 10.974938,0.03861 c -0.230181,-0.08155 -0.429324,-0.148991 -0.44254,-0.149858 -0.01323,-8.89e-4 -0.119152,-0.188027 -0.235413,-0.415919 -0.266352,-0.52209 -0.26782,-0.948155 -0.005,-1.463236 0.309752,-0.607162 0.668412,-0.842744 1.283027,-0.842744 0.448873,0 0.566729,0.04724 0.866975,0.347483 0.208121,0.208121 0.376785,0.503666 0.420539,0.736908 0.145059,0.773221 -0.455898,1.707253 -1.207457,1.876682 -0.143864,0.03243 -0.449902,-0.0078 -0.680083,-0.08932 z M 64.548,46.453105 c -0.732625,-0.446684 -0.945747,-1.259037 -0.526168,-2.005575 0.450053,-0.800765 1.300992,-1.085888 2.070384,-0.693725 0.595296,0.303422 0.867224,0.787988 0.801922,1.428996 -0.116857,1.147106 -1.404617,1.844358 -2.346138,1.270304 z m -5.476536,-1.704107 c -0.520019,-0.349232 -0.540768,-0.800136 -0.05899,-1.281921 0.30696,-0.306957 0.435351,-0.362629 0.836326,-0.362629 0.388363,0 0.513165,0.05018 0.692814,0.278569 0.277991,0.353408 0.379633,0.752431 0.246325,0.967003 -0.173997,0.28006 -0.778605,0.63773 -1.078026,0.63773 -0.155617,0 -0.44292,-0.10744 -0.638452,-0.238752 z m -39.714919,0.02877 c -0.53753,-0.216577 -0.602962,-0.92474 -0.126558,-1.369769 0.509978,-0.476389 1.055145,-0.345386 1.408817,0.338544 0.145044,0.280478 0.145848,0.341921 0.0072,0.553462 -0.144843,0.221055 -0.769684,0.591606 -0.97211,0.576489 -0.04885,-0.0036 -0.191673,-0.04808 -0.317389,-0.09873 z M 17.891716,39.127796 C 13.995579,38.55814 10.457753,35.265277 9.0120743,30.862989 8.7421923,30.04116 8.7194063,29.842607 8.7119203,28.247293 l -0.0081,-1.72636 0.508631,-1.203222 c 0.7992857,-1.890788 7.2510367,-14.71663 8.4735427,-16.8450898 0.463503,-0.806985 0.651655,-1.251341 0.708836,-1.674045 0.06667,-0.492874 0.137241,-0.628003 0.491756,-0.941651 0.842906,-0.745747 3.511723,-1.556272 7.603976,-2.309347 3.187529,-0.586585 6.169763,-0.988743 8.119855,-1.094967 l 1.319044,-0.07185 -0.05056,0.787894 c -0.028,0.436199 -2.97e-4,0.931813 0.06183,1.110314 l 0.112397,0.322422 h -1.137236 c -1.409834,0 -4.708635,0.261767 -5.818416,0.461702 -0.455534,0.08207 -1.515308,0.271442 -2.355056,0.420828 -1.856411,0.330245 -5.091028,1.128789 -5.620331,1.387513 -0.28353,0.138593 -0.376904,0.244287 -0.351572,0.397967 0.01898,0.115089 0.755764,1.598191 1.637328,3.2957788 2.47228,4.760771 6.704036,13.180181 7.414901,14.752531 l 0.638585,1.412476 0.0015,1.04628 c 8.89e-4,0.609623 -0.07548,1.404682 -0.182847,1.905054 -0.228547,1.065183 -1.024552,3.147982 -1.426205,3.731764 -0.165108,0.239971 -0.368985,0.600954 -0.45306,0.802177 -0.16743,0.40071 -1.116443,1.564295 -1.857761,2.277787 -0.566847,0.545577 -1.675477,1.288701 -2.610491,1.749837 -1.61894,0.79844 -4.122696,1.165138 -6.040666,0.88471 z m 4.989181,-9.001276 c 3.279547,-0.206659 5.354006,-0.403739 5.496754,-0.522209 0.07696,-0.06387 0.172285,-0.375139 0.211838,-0.691706 0.113309,-0.906876 -0.09944,-2.164261 -0.573521,-3.389659 -0.69831,-1.804977 -8.266124,-16.7364398 -8.482641,-16.7364398 -0.09858,0 -0.92566,1.2924758 -1.339064,2.0925558 -0.223004,0.431591 -0.647251,1.231994 -0.942769,1.778674 -0.295518,0.546683 -0.992041,1.888534 -1.547825,2.981896 -0.555785,1.093362 -1.38552,2.717709 -1.843857,3.609661 -3.179085,6.186695 -3.445787,6.855383 -3.463603,8.684117 -0.01278,1.312694 0.185115,1.869398 0.714053,2.008676 0.172635,0.04546 1.373239,0.08265 2.668011,0.08264 1.294768,-3e-6 3.107448,0.06676 4.028172,0.148351 1.719769,0.152405 1.950582,0.150288 5.074452,-0.04656 z m -3.488925,-0.238702 -0.716289,-0.106643 0.03621,-1.342438 c 0.0199,-0.738341 0.02619,-1.342418 0.01391,-1.342394 -0.01225,2.4e-5 -0.27121,0.09892 -0.575454,0.219765 -0.779924,0.30979 -1.954129,0.24536 -2.605633,-0.142977 -1.212986,-0.723013 -1.765742,-1.581701 -1.849325,-2.872866 -0.05274,-0.814636 -0.09716,-0.677502 0.882251,-2.723362 0.436831,-0.912485 0.703492,-1.084532 1.79016,-1.155018 0.417204,-0.02708 0.758553,-0.08471 0.758553,-0.128112 0,-0.0434 -0.07034,-0.213768 -0.156299,-0.378594 -0.162255,-0.31111 -0.206143,-1.129332 -0.09136,-1.703241 0.0847,-0.423512 0.882053,-1.31297 1.439104,-1.605348 1.120621,-0.588174 2.921206,0.01044 3.511436,1.167372 0.328863,0.644632 0.364773,1.242196 0.118565,1.973051 -0.119799,0.355624 -0.217817,0.671612 -0.217817,0.702202 0,0.03059 0.307548,0.05561 0.68344,0.05561 0.375893,0 0.83847,0.06477 1.027948,0.143944 0.417085,0.174266 0.964547,0.814277 1.127437,1.318029 0.06563,0.202958 0.239494,0.604428 0.38637,0.892152 0.812961,1.592576 -0.264131,4.046133 -2.018458,4.597938 -0.653817,0.205651 -1.227316,0.155053 -1.856494,-0.163791 -0.213501,-0.108194 -0.442487,-0.196718 -0.508856,-0.196718 -0.08731,0 -0.109546,0.404946 -0.08044,1.464791 0.04602,1.675493 0.177564,1.51669 -1.098965,1.326643 z M 20.01017,27.27587 c 0.0363,-0.165259 0.03702,-0.45491 0.0015,-0.643671 -0.0614,-0.327294 -0.0351,-0.362439 0.567541,-0.758478 0.34756,-0.228405 0.913431,-0.687577 1.257494,-1.020385 0.567337,-0.548773 0.625422,-0.645418 0.623969,-1.038171 -8.9e-4,-0.238189 -0.0504,-0.503693 -0.110044,-0.59001 -0.094,-0.136037 -0.12514,-0.130402 -0.233811,0.0423 -0.283617,0.450747 -0.789,0.963136 -1.380903,1.40005 l -0.627768,0.463387 -0.05302,-1.554483 c -0.04343,-1.273175 -0.09076,-1.629184 -0.261571,-1.967295 -0.114698,-0.227046 -0.263514,-0.429775 -0.330699,-0.450509 -0.208,-0.06419 -0.376263,1.089901 -0.388975,2.667918 -0.0066,0.819889 -0.04026,1.490816 -0.07478,1.490947 -0.173074,5.93e-4 -0.947829,-0.672123 -1.499545,-1.302166 -0.569786,-0.650679 -0.631974,-0.693325 -0.758552,-0.520215 -0.07584,0.103712 -0.137627,0.285505 -0.137306,0.403981 8.89e-4,0.330533 1.290954,1.875923 1.883305,2.256036 0.436009,0.279785 0.522558,0.387216 0.522558,0.648645 0,0.172326 0.07353,0.468269 0.163394,0.657649 0.153478,0.323433 0.181835,0.337369 0.467254,0.229635 0.206437,-0.07792 0.32502,-0.21103 0.369854,-0.415169 z m 39.124292,11.891496 c -2.167353,-0.1992 -3.822434,-0.897383 -5.649908,-2.383365 -1.694559,-1.377909 -3.239884,-3.618066 -3.831867,-5.554815 -0.170422,-0.55755 -0.409536,-3.215251 -0.338342,-3.760528 0.153627,-1.176553 0.894364,-2.820996 4.630865,-10.280542 1.619942,-3.234054 3.016576,-6.081975 3.103629,-6.328711 0.08706,-0.246739 0.511834,-1.1275938 0.943953,-1.9574598 0.432118,-0.829866 0.771605,-1.605671 0.754415,-1.72401 -0.03214,-0.221254 -0.368421,-0.344042 -3.174311,-1.159032 -0.917826,-0.266592 -3.338964,-0.738135 -5.400278,-1.051769 -0.815505,-0.124081 -5.257718,-0.465564 -6.104572,-0.469271 -0.194505,-8.9e-4 -0.209257,-0.07098 -0.209257,-0.994787 v -0.993871 l 1.005464,-2.07e-4 c 2.508849,-2.97e-4 7.227002,0.703109 10.922118,1.628721 3.127047,0.783311 4.490181,1.241831 4.953133,1.666096 0.332229,0.304467 0.375053,0.408914 0.448157,1.093099 0.04446,0.416058 0.125019,0.811314 0.17903,0.878348 0.247231,0.306851 7.30868,14.2860388 8.782105,17.3854848 l 0.795812,1.674045 -0.0021,0.889337 c -0.0047,2.094288 -0.769939,4.399512 -2.161903,6.512304 -0.800009,1.214288 -2.445416,2.871704 -3.391914,3.416663 -1.832957,1.055352 -4.423405,1.682531 -6.254348,1.514249 z m 5.609476,-8.879674 c 2.253352,-0.05279 3.674892,-0.241683 3.959309,-0.526103 0.12942,-0.12942 0.161608,-0.436991 0.161608,-1.544189 0,-1.168329 -0.03776,-1.49608 -0.243693,-2.114981 C 68.265058,25.03219 60.540805,9.3953382 60.177007,9.0082082 c -0.113469,-0.120745 -0.182561,-0.05196 -0.420377,0.418511 -0.156524,0.309654 -0.436184,0.8005428 -0.621465,1.0908648 -0.342115,0.536074 -0.938161,1.661921 -1.382306,2.610978 -0.134651,0.287727 -0.321583,0.664387 -0.415401,0.837025 -0.163734,0.30129 -1.15907,2.277046 -1.511381,3.000118 -0.09325,0.191385 -1.017579,2.042944 -2.054059,4.114576 -2.198639,4.39445 -2.504849,5.07291 -2.655827,5.884412 -0.135275,0.727097 -0.06866,2.275076 0.114353,2.65738 0.232424,0.485519 0.498367,0.533393 3.43937,0.619159 1.51513,0.04418 2.782022,0.107577 2.81532,0.140874 0.05613,0.05613 1.802721,0.03341 7.258704,-0.09441 z m -5.243276,-1.511215 c -2.432673,-0.06619 -2.671538,-0.13217 -3.031269,-0.837302 -0.28437,-0.55741 -0.451495,-2.109402 -0.402576,-3.738503 0.03353,-1.116516 0.07762,-1.41196 0.262692,-1.760229 0.291651,-0.548812 0.725742,-0.951192 1.581853,-1.466288 l 0.69996,-0.421142 V 18.868 17.182988 l -0.30102,-0.113684 c -0.291375,-0.110041 -0.299466,-0.132418 -0.25252,-0.698518 0.07437,-0.896739 0.156279,-0.940998 1.734631,-0.937256 1.677776,0.004 1.87487,0.05509 2.076882,0.538569 0.180438,0.431848 0.118601,0.819844 -0.182019,1.142061 -0.187209,0.200662 -0.201887,0.353639 -0.175343,1.827265 l 0.02898,1.608272 0.575455,0.398421 c 0.771625,0.534238 1.312628,1.048673 1.539301,1.463711 0.168103,0.307794 0.183665,0.602218 0.153574,2.905615 -0.03319,2.540601 -0.03576,2.566092 -0.29198,2.90202 -0.142173,0.186397 -0.338974,0.380424 -0.437342,0.431173 -0.294011,0.151687 -1.312783,0.187505 -3.57925,0.12584 z m -1.107631,-1.863191 c 0.03295,-0.158248 0.04864,-1.120761 0.03487,-2.138915 l -0.02503,-1.851194 -0.249301,0.22946 c -0.477191,0.439207 -0.54762,0.78819 -0.470236,2.330096 0.06361,1.267388 0.09362,1.431036 0.287371,1.566744 0.300258,0.21031 0.353774,0.193052 0.42232,-0.136191 z M 31.817302,21.667145 c -0.419662,-0.255907 -0.776033,-0.713778 -0.773132,-0.993328 0.0038,-0.366007 0.380637,-1.082504 0.668554,-1.271155 0.401443,-0.263036 0.953669,-0.122886 1.442696,0.366141 0.464822,0.464823 0.519462,0.880223 0.186619,1.418776 -0.200144,0.323839 -0.754674,0.677867 -1.060442,0.677022 -0.07762,-2.11e-4 -0.286555,-0.08907 -0.464295,-0.197456 z m 15.067162,-0.112779 c -0.329368,-0.133243 -0.776176,-0.717873 -0.776176,-1.015595 0,-0.35641 0.291722,-0.948203 0.560061,-1.136156 0.120392,-0.08433 0.401458,-0.153322 0.624589,-0.153322 0.32047,0 0.479127,0.07343 0.755265,0.349568 0.449937,0.44994 0.544547,0.823635 0.325052,1.283923 -0.284355,0.596295 -0.9418,0.892863 -1.488791,0.671582 z m 1.08192,-5.802041 c -0.812448,-0.289967 -1.316624,-0.813142 -1.608165,-1.668769 -0.140367,-0.411957 -0.145934,-0.569991 -0.03645,-1.0345 0.163198,-0.692346 0.597058,-1.570703 1.304672,-2.641329 1.035746,-1.5670848 1.145072,-1.5658718 2.332935,0.02583 1.165479,1.56172 1.421914,2.086717 1.466579,3.002521 0.03271,0.670589 0.0085,0.779532 -0.262586,1.180637 -0.704856,1.043017 -2.083902,1.532869 -3.19699,1.135605 z M 29.513196,15.535709 c -1.131188,-0.563694 -1.568227,-1.829383 -1.081175,-3.131145 0.401526,-1.073177 1.926891,-3.1995468 2.295214,-3.1995468 0.351682,0 1.716489,1.6710498 2.296781,2.8121468 0.128106,0.251912 0.258326,0.704189 0.289379,1.005064 0.201157,1.949027 -2.004887,3.408124 -3.800199,2.513481 z M 8.9982243,13.918478 c -0.183351,-0.111794 -0.38345,-0.296853 -0.444667,-0.411242 -0.482407,-0.901384 0.544422,-2.044572 1.4838867,-1.652039 0.725671,0.303206 1.005206,1.01736 0.640124,1.635394 -0.362053,0.612907 -1.0771057,0.795098 -1.6793437,0.427887 z m 59.7177197,-0.06682 c -0.259688,-0.218514 -0.321914,-0.350974 -0.321914,-0.685276 0,-1.191686 1.138054,-1.721063 1.989683,-0.92552 0.250568,0.234066 0.312133,0.37822 0.312133,0.730884 0,0.987749 -1.211746,1.526273 -1.979902,0.879912 z M 39.177641,5.4987892 C 38.601974,5.2933312 38.294634,5.0642442 37.942498,4.5781332 37.524491,4.0010922 37.28201,3.1507202 37.37372,2.5834432 37.595309,1.2128022 38.725056,0.0074922 39.795148,5.7204974e-5 40.419805,-0.0042428 41.272446,0.4123012 41.768766,0.9643282 c 0.526242,0.58531 0.677119,1.0126 0.674667,1.910698 -0.0021,0.794255 -0.2536,1.36058 -0.883868,1.990849 -0.760768,0.760768 -1.484713,0.953131 -2.381924,0.632914 z m 1.419684,-1.738958 c 0.354357,-0.278741 0.455534,-0.809559 0.235433,-1.235189 -0.208269,-0.402747 -0.455183,-0.538953 -0.977024,-0.538953 -0.946539,0 -1.322992,1.291494 -0.519293,1.781529 0.434669,0.26503 0.918161,0.262198 1.260884,-0.0074 z"
       id="path2210" /></g></svg>
