<?xml version="1.0" encoding="UTF-8" standalone="no"?>
<!-- Created with Inkscape (http://www.inkscape.org/) -->

<svg
   width="300"
   height="300"
   viewBox="0 0 79.374998 79.375"
   version="1.1"
   id="svg5"
   xml:space="preserve"
   inkscape:export-filename="people.svg"
   inkscape:export-xdpi="96"
   inkscape:export-ydpi="96"
   xmlns:inkscape="http://www.inkscape.org/namespaces/inkscape"
   xmlns:sodipodi="http://sodipodi.sourceforge.net/DTD/sodipodi-0.dtd"
   xmlns="http://www.w3.org/2000/svg"
   xmlns:svg="http://www.w3.org/2000/svg"><sodipodi:namedview
     id="namedview7"
     pagecolor="#ffffff"
     bordercolor="#000000"
     borderopacity="0.25"
     inkscape:showpageshadow="2"
     inkscape:pageopacity="0.0"
     inkscape:pagecheckerboard="0"
     inkscape:deskcolor="#d1d1d1"
     inkscape:document-units="mm"
     showgrid="false" /><defs
     id="defs2" /><g
     inkscape:label="Layer 1"
     inkscape:groupmode="layer"
     id="layer1"><path
       id="path312"
       style="fill:#000000;stroke-width:1.08533"
       d="m 28.184923,16.641373 c -3.49715,0 -6.1866,1.159351 -8.27882,3.226613 -1.99948,1.97562 -3.33112,4.66409 -4.44423,7.493619 -0.55697,1.511345 -1.11151,3.023721 -1.66687,4.535655 h -2.17109 c -0.006,-4.2e-5 -0.0112,1.6e-5 -0.0168,0 -0.0165,-4.7e-5 -0.033,-8.2e-5 -0.0494,0 -1.38604,0.007 -2.70504,0.570265 -3.67697,1.552454 -0.9855,0.996034 -1.535149,2.341046 -1.545166,3.736433 v 0.01571 4.871047 2.691556 5.304589 0.01571 c 0.01,1.395389 0.559656,2.740395 1.545166,3.736433 0.98342,0.9938 2.32232,1.55747 3.72633,1.551332 v 5.61e-4 h 0.0168 7.0197 c 0.12203,0 0.24069,-0.01269 0.35727,-0.03197 0.30278,0.873965 0.79477,1.686002 1.46216,2.367941 1.77298,1.811882 4.43615,2.348868 6.74599,1.360079 1.63779,-0.701303 2.86527,-2.073153 3.43973,-3.726338 0.11769,0.01965 0.2385,0.03029 0.36177,0.03029 h 18.00295 c 0.12208,0 0.24178,-0.01042 0.3584,-0.02973 0.30285,0.873074 0.79423,1.684367 1.46103,2.365697 1.77297,1.811887 4.43687,2.348869 6.74655,1.360079 1.63775,-0.701289 2.86483,-2.073199 3.43918,-3.726337 0.11766,0.01965 0.2385,0.03029 0.36177,0.03029 h 6.37076 0.0168 c 1.40404,0.0062 2.74291,-0.558065 3.72633,-1.551893 0.9856,-0.99605 1.53497,-2.341031 1.54516,-3.736433 v -0.01571 -3.998352 -3.997793 -4.871048 -0.01571 c -0.021,-2.883701 -2.32645,-5.300465 -5.26869,-5.288888 h -0.0145 -7.57438 l -1.64892,-4.489103 -0.0179,-0.04655 c -1.11319,-2.829587 -2.44457,-5.51796 -4.44424,-7.493618 -2.09209,-2.067301 -4.78228,-3.226613 -8.27939,-3.226613 h -8.56597 -3.06958 z m 0,4.359546 h 3.79139 V 31.89726 h -13.33271 -0.20414 l 1.08919,-2.965254 c 1.05702,-2.682281 2.11755,-4.654987 3.44141,-5.963039 1.2354,-1.220648 2.8063,-1.968048 5.21486,-1.968048 z m 8.15094,0 h 0.88952 8.56597 c 2.40863,0 3.9796,0.74738 5.21486,1.968048 1.32675,1.310812 2.38851,3.288919 3.44759,5.979865 8.5e-4,0.003 0.003,0.0058 0.004,0.009 l 1.0791,2.939453 h -1.89557 -14.01415 -3.29167 z m -24.74503,15.256448 h 0.0162 3.7095 3.32702 15.5122 5.47172 14.01415 5.01855 9.11057 0.0145 c 0.43887,-0.003 0.89021,0.373948 0.89457,0.960188 v 2.675852 h -3.70614 c -1.20388,0 -2.18007,0.975628 -2.18007,2.179492 0,1.203867 0.97619,2.180053 2.18007,2.180053 h 3.70614 v 1.81774 3.982648 c -0.003,0.274374 -0.11027,0.525235 -0.28436,0.701072 -0.17229,0.174099 -0.39308,0.260861 -0.61076,0.259117 h -0.0168 -6.38761 c -0.12658,0 -0.25062,0.01074 -0.37128,0.03141 -0.30664,-0.865936 -0.79614,-1.661414 -1.44478,-2.324192 -1.1594,-1.184966 -2.73045,-1.849491 -4.36739,-1.846344 -2.50308,0 -4.75893,1.547858 -5.71458,3.920394 -0.0336,0.08321 -0.0649,0.166674 -0.0948,0.250704 -0.12157,-0.02102 -0.24653,-0.03196 -0.3741,-0.03196 h -18.00293 c -0.1264,0 -0.25023,0.01074 -0.37074,0.03141 -0.30665,-0.865936 -0.79671,-1.661414 -1.44532,-2.324192 -1.15961,-1.184965 -2.73046,-1.849491 -4.3674,-1.846344 -2.50302,0 -4.75941,1.547865 -5.71514,3.920394 -0.0337,0.08393 -0.0653,0.168179 -0.0954,0.252947 -0.12149,-0.02099 -0.24548,-0.03421 -0.37297,-0.03421 h -7.03652 -0.0162 c -0.21775,0.0018 -0.4385,-0.08502 -0.61077,-0.259117 -0.17409,-0.175826 -0.28297,-0.426698 -0.28492,-0.701072 v -5.288886 -0.511502 h 3.46835 c 1.20387,0 2.17949,-0.976207 2.17949,-2.180054 0,-1.203822 -0.97562,-2.179492 -2.17949,-2.179492 h -3.46835 v -2.675851 c 0.002,-0.274373 0.11084,-0.52581 0.28492,-0.701632 0.17227,-0.1741 0.39302,-0.260301 0.61077,-0.258556 z"
       sodipodi:nodetypes="sscccsccccccccccccsccccssccccsccsccccccccccccsccsscccccssccscsccccccccccccccccccsssccccccscccscsscscccsccccccssscccc" /></g></svg>
