<?xml version="1.0" encoding="UTF-8" standalone="no"?>
<!-- Created with Inkscape (http://www.inkscape.org/) -->

<svg
   width="300"
   height="300"
   viewBox="0 0 79.374998 79.375"
   version="1.1"
   id="svg5"
   xml:space="preserve"
   inkscape:export-filename="people.svg"
   inkscape:export-xdpi="96"
   inkscape:export-ydpi="96"
   xmlns:inkscape="http://www.inkscape.org/namespaces/inkscape"
   xmlns:sodipodi="http://sodipodi.sourceforge.net/DTD/sodipodi-0.dtd"
   xmlns="http://www.w3.org/2000/svg"
   xmlns:svg="http://www.w3.org/2000/svg"><sodipodi:namedview
     id="namedview7"
     pagecolor="#ffffff"
     bordercolor="#000000"
     borderopacity="0.25"
     inkscape:showpageshadow="2"
     inkscape:pageopacity="0.0"
     inkscape:pagecheckerboard="0"
     inkscape:deskcolor="#d1d1d1"
     inkscape:document-units="mm"
     showgrid="false" /><defs
     id="defs2" /><g
     inkscape:label="Layer 1"
     inkscape:groupmode="layer"
     id="layer1"><path
       id="path772"
       style="stroke-width:0.108533;stroke-dasharray:0.217065, 0.43413"
       d="m 39.799121,12.214242 c -0.17565,-0.0015 -0.352175,0.0029 -0.529167,0.01343 -3.202072,0.146566 -6.098678,2.24481 -7.226432,5.208468 -1.280291,3.071209 -0.307115,6.937626 2.119767,9.053711 2.799736,2.650337 7.498278,2.852131 10.51047,0.443901 1.990396,-1.45975 3.203577,-3.985426 3.221509,-6.511748 0.0054,-0.765948 -0.09776,-1.532224 -0.324011,-2.268595 -0.954766,-3.431226 -4.200574,-5.909603 -7.772136,-5.939172 z m -0.113688,4.354772 c 2.128002,0 3.852995,1.725117 3.852995,3.852995 0,2.12788 -1.724993,3.852995 -3.852995,3.852995 -2.128003,0 -3.852995,-1.725115 -3.852995,-3.852995 0,-2.127878 1.724992,-3.852995 3.852995,-3.852995 z m 16.833081,13.706141 c -0.505803,1.63e-4 -1.013262,0.06112 -1.511536,0.188619 -4.678532,0.98241 -9.350602,2.214007 -14.161409,2.263427 -4.412949,0.152895 -8.800828,-0.517504 -13.082923,-1.535306 -1.813077,-0.298876 -3.606703,-1.003408 -5.463749,-0.884184 -3.385036,0.197028 -6.278172,3.276957 -6.228043,6.676078 -0.08434,3.028474 2.123013,5.872044 5.043619,6.624919 2.466525,0.852884 4.981372,1.602687 7.418669,2.518709 0.838855,0.570498 0.247203,1.584608 -0.02687,2.29495 -1.324149,3.541632 -2.778853,7.039042 -4.021976,10.608138 -0.879934,3.293799 1.275501,6.999882 4.571297,7.868771 2.974431,0.894965 6.32376,-0.575987 7.711157,-3.350183 0.972656,-1.703435 1.947098,-3.406239 2.918685,-5.110283 1.232373,2.062773 2.301672,4.231322 3.644739,6.222876 1.969207,2.589606 5.891349,3.273211 8.6434,1.49965 2.69137,-1.62549 3.86496,-5.282147 2.574003,-8.160225 -1.371869,-3.645259 -2.850506,-7.260431 -4.157369,-10.923881 -0.07141,-0.757897 0.562741,-1.053196 1.189075,-1.255221 3.62e-4,-1.17e-4 6.7e-4,-4e-4 0.001,-5.16e-4 0.198309,-0.0598 0.397485,-0.12083 0.59738,-0.184485 2.461281,-0.872688 4.99393,-1.562513 7.409883,-2.551266 3.0283,-1.444956 4.526561,-5.317983 3.277836,-8.429459 -0.931938,-2.612053 -3.615559,-4.382012 -6.346899,-4.381128 z m 0.07028,4.365108 c 1.276541,0.02453 2.360579,1.068885 2.360579,2.412256 0,1.037954 -0.664209,1.95945 -1.648995,2.287715 l -3.35225,1.117245 c -0.0015,6.04e-4 -0.0031,9.46e-4 -0.0047,0.0016 l -3.347599,1.116211 c -0.05579,0.01848 -0.112055,0.03701 -0.168465,0.05581 -0.335264,0.111047 -0.676766,0.225288 -1.005107,0.357084 -7.46654,2.053113 -13.502684,1.171028 -22.864237,-1.151868 l -4.488098,-1.496033 c -0.984724,-0.328262 -1.648995,-1.249761 -1.648995,-2.287715 0,-1.343371 1.083946,-2.387218 2.360579,-2.411739 0.182376,-0.0035 0.368908,0.01353 0.556555,0.05374 l 5.858041,1.255221 c 0.316209,0.06774 0.48628,0.104446 0.655774,0.139526 6.48698,1.341807 13.180068,1.341807 19.667016,0 0.169525,-0.03508 0.33995,-0.07165 0.656808,-0.139526 l 5.857007,-1.255221 c 0.187633,-0.04021 0.373675,-0.05776 0.556038,-0.05426 z M 33.336466,46.88396 c 4.236375,0.571353 8.33647,0.793199 12.698967,0.170015 0.0029,0.219376 0.01579,0.439887 0.04599,0.660942 0.08661,0.632174 0.336501,1.279074 0.577226,1.901693 0.02157,0.05548 0.04282,0.110504 0.06408,0.165364 l 3.843177,9.992155 c 0.561589,1.460073 -0.516449,3.029273 -2.08101,3.029273 -0.799849,0 -1.538286,-0.42901 -1.935283,-1.123446 l -4.857067,-8.49974 C 41.281062,52.45989 40.514872,52.01543 39.685433,52.01543 c -0.829439,0 -1.59563,0.44446 -2.007113,1.164786 l -4.857068,8.49974 c -0.396904,0.694436 -1.135858,1.123446 -1.935799,1.123446 -1.564408,0 -2.642083,-1.5692 -2.080493,-3.029273 l 3.843176,-9.992155 c 0.02114,-0.05486 0.04214,-0.109884 0.06356,-0.165364 0.240726,-0.622619 0.490806,-1.269519 0.577226,-1.901693 0.03803,-0.278228 0.05261,-0.555829 0.04754,-0.830957 z" /></g></svg>
