<?xml version="1.0" encoding="UTF-8" standalone="no"?>
<!-- Created with Inkscape (http://www.inkscape.org/) -->

<svg
   width="300"
   height="300"
   viewBox="0 0 79.374998 79.375"
   version="1.1"
   id="svg5"
   xml:space="preserve"
   inkscape:export-filename="car.svg"
   inkscape:export-xdpi="96"
   inkscape:export-ydpi="96"
   xmlns:inkscape="http://www.inkscape.org/namespaces/inkscape"
   xmlns:sodipodi="http://sodipodi.sourceforge.net/DTD/sodipodi-0.dtd"
   xmlns="http://www.w3.org/2000/svg"
   xmlns:svg="http://www.w3.org/2000/svg"><sodipodi:namedview
     id="namedview7"
     pagecolor="#ffffff"
     bordercolor="#000000"
     borderopacity="0.25"
     inkscape:showpageshadow="2"
     inkscape:pageopacity="0.0"
     inkscape:pagecheckerboard="0"
     inkscape:deskcolor="#d1d1d1"
     inkscape:document-units="mm"
     showgrid="false" /><defs
     id="defs2" /><g
     inkscape:label="Layer 1"
     inkscape:groupmode="layer"
     id="layer1"><path
       id="path820"
       style="stroke-width:0.101232;stroke-dasharray:0.202463, 0.404925"
       d="m 45.974195,43.067655 c -1.69252,0 -3.05511,1.425363 -3.05511,3.195671 v 17.27078 c 0,1.770305 1.36259,3.195671 3.05511,3.195671 h 16.51217 c 1.69253,0 3.05511,-1.425366 3.05511,-3.195671 v -17.27078 c 0,-1.770308 -1.36258,-3.195671 -3.05511,-3.195671 z m 0.92139,4.158919 h 14.66991 v 15.344283 h -14.66991 z m -30.00695,-4.158919 c -1.69252,0 -3.05511,1.425361 -3.05511,3.195671 v 17.27078 c 0,1.770307 1.36259,3.195671 3.05511,3.195671 h 16.51217 c 1.69253,0 3.05511,-1.425364 3.05511,-3.195671 v -17.27078 c 0,-1.77031 -1.36258,-3.195671 -3.05511,-3.195671 z m 0.92087,4.158919 h 14.66991 v 15.344283 h -14.66991 z m 28.16469,-34.581351 c -1.69252,0 -3.05511,1.425363 -3.05511,3.19567 v 17.270781 c 0,1.770306 1.36259,3.19567 3.05511,3.19567 h 16.51217 c 1.69253,0 3.05511,-1.425364 3.05511,-3.19567 V 15.840893 c 0,-1.770307 -1.36258,-3.19567 -3.05511,-3.19567 z m 0.92139,4.158919 h 14.66991 v 15.344283 h -14.66991 z m -30.00695,-4.158919 c -1.69252,0 -3.05511,1.425363 -3.05511,3.19567 v 17.270781 c 0,1.770306 1.36259,3.19567 3.05511,3.19567 h 16.51217 c 1.69253,0 3.05511,-1.425364 3.05511,-3.19567 V 15.840893 c 0,-1.770307 -1.36258,-3.19567 -3.05511,-3.19567 z m 0.92087,4.158919 h 14.66991 v 15.344283 h -14.66991 z" /></g></svg>
